<svg viewBox="0 0 22 23" xmlns="http://www.w3.org/2000/svg">
<path d="M16.224 5.60094H5.85738C3.98691 5.60094 2.41541 6.96716 1.97392 9.33936L1.17499 15.5029C0.494932 20.016 2.61731 21.9999 6.77099 21.9999H15.2731C19.1143 21.9999 21.4102 19.7637 20.9388 15.7506L20.114 9.38067C19.5853 6.97896 18.0542 5.60094 16.224 5.60094Z" stroke-width="1.05"/>
<path d="M16.175 6.13845C16.175 3.3006 13.8629 1.00005 11.0109 1.00005C9.64069 0.994308 8.32156 1.53312 7.34838 2.49736C6.3752 3.46162 5.82812 4.77189 5.82812 6.13845" stroke-width="1.05" stroke-linecap="round"/>
<path d="M14.0302 9.94243C14.4521 9.94243 14.7941 10.2827 14.7941 10.7025C14.7941 11.0873 14.5067 11.4053 14.1339 11.4556L14.0302 11.4625H13.9836C13.5617 11.4625 13.2197 11.1223 13.2197 10.7025C13.2197 10.3177 13.5071 9.9997 13.8799 9.94937L13.9836 9.94243H14.0302Z"/>
<path d="M8.09466 9.94243C8.51653 9.94243 8.85852 10.2827 8.85852 10.7025C8.85852 11.0873 8.57115 11.4053 8.19831 11.4556L8.09466 11.4625H8.04804C7.62617 11.4625 7.28418 11.1223 7.28418 10.7025C7.28418 10.3177 7.57155 9.9997 7.94439 9.94937L8.04804 9.94243H8.09466Z"/>
</svg>
