<svg viewBox="0 0 18 19" xmlns="http://www.w3.org/2000/svg">
<path fill-rule="evenodd" clip-rule="evenodd" d="M1.10591 7.65946C1.49772 5.55421 2.937 4.22461 4.74122 4.22461H13.1333C14.9172 4.22461 16.3082 5.57668 16.7706 7.67689L16.7753 7.69837L17.4466 12.8826C17.6497 14.6112 17.2629 16.0371 16.3306 17.0308C15.4029 18.0196 14.0103 18.4999 12.3635 18.4999H5.48081C3.73589 18.4999 2.29614 18.085 1.37859 17.0768C0.455819 16.0629 0.170242 14.5705 0.455519 12.6711L1.10339 7.67301L1.10591 7.65946ZM2.0915 7.82921L1.44524 12.815C1.18129 14.5667 1.47972 15.7022 2.11816 16.4037C2.76267 17.1119 3.86322 17.4999 5.48081 17.4999H12.3635C13.8263 17.4999 14.9177 17.0752 15.6013 16.3466C16.2798 15.6235 16.6315 14.5208 16.4537 13.0021L15.7893 7.87088C15.3918 6.09673 14.3079 5.22461 13.1333 5.22461H4.74122C3.52018 5.22461 2.41764 6.1025 2.0915 7.82921Z"/>
<path fill-rule="evenodd" clip-rule="evenodd" d="M8.91123 1.50003C7.93436 1.49594 6.99389 1.88018 6.30038 2.56733C5.60706 3.25428 5.21777 4.18721 5.21777 5.1597C5.21777 5.43584 4.99392 5.6597 4.71777 5.6597C4.44163 5.6597 4.21777 5.43584 4.21777 5.1597C4.21777 3.91965 4.71422 2.73119 5.59654 1.85697C6.4784 0.983208 7.67323 0.495117 8.91438 0.500037C11.4965 0.5006 13.5938 2.58425 13.5938 5.1597C13.5938 5.43584 13.3699 5.6597 13.0938 5.6597C12.8176 5.6597 12.5938 5.43584 12.5938 5.1597C12.5938 3.14088 10.9483 1.50004 8.91333 1.50004H8.91123V1.50003Z"/>
<path d="M11.3573 8.23914C11.6988 8.23914 11.9756 8.51461 11.9756 8.85442C11.9756 9.16592 11.743 9.42335 11.4412 9.46409L11.3573 9.46971H11.3195C10.978 9.46971 10.7012 9.19423 10.7012 8.85442C10.7012 8.54293 10.9338 8.28549 11.2356 8.24475L11.3195 8.23914H11.3573Z"/>
<path d="M6.55259 8.23914C6.8941 8.23914 7.17095 8.51461 7.17095 8.85442C7.17095 9.16592 6.93832 9.42335 6.63649 9.46409L6.55259 9.46971H6.51485C6.17334 9.46971 5.89648 9.19423 5.89648 8.85442C5.89648 8.54293 6.12912 8.28549 6.43094 8.24475L6.51485 8.23914H6.55259Z"/>
</svg>
