<svg viewBox="0 0 17 16" xmlns="http://www.w3.org/2000/svg">
<path fill-rule="evenodd" clip-rule="evenodd" d="M15.7072 1.0101C15.8996 1.20812 15.8951 1.52467 15.6971 1.71713L1.69695 15.3237C1.49893 15.5162 1.18238 15.5117 0.989916 15.3137C0.797457 15.1156 0.80197 14.7991 0.999996 14.6066L15.0002 1.00002C15.1982 0.807557 15.5147 0.81207 15.7072 1.0101Z"/>
<path fill-rule="evenodd" clip-rule="evenodd" d="M0.990079 1.0101C0.79762 1.20812 0.802133 1.52467 1.00016 1.71713L15.0003 15.3237C15.1983 15.5162 15.5149 15.5117 15.7073 15.3137C15.8998 15.1156 15.8953 14.7991 15.6973 14.6066L1.69711 1.00002C1.49909 0.807557 1.18254 0.81207 0.990079 1.0101Z"/>
</svg>
