<svg viewBox="0 0 18 19" xmlns="http://www.w3.org/2000/svg">
<path d="M7.3125 2.87879H10.6875C10.6875 2.42069 10.5097 1.98135 10.1932 1.65742C9.87678 1.3335 9.44755 1.15152 9 1.15152C8.55245 1.15152 8.12322 1.3335 7.80676 1.65742C7.49029 1.98135 7.3125 2.42069 7.3125 2.87879ZM6.1875 2.87879C6.1875 2.11529 6.48382 1.38305 7.01126 0.843177C7.53871 0.3033 8.25408 0 9 0C9.74592 0 10.4613 0.3033 10.9887 0.843177C11.5162 1.38305 11.8125 2.11529 11.8125 2.87879H17.4375C17.5867 2.87879 17.7298 2.93945 17.8352 3.04742C17.9407 3.1554 18 3.30185 18 3.45455C18 3.60725 17.9407 3.75369 17.8352 3.86167C17.7298 3.96964 17.5867 4.0303 17.4375 4.0303H16.2517L14.9085 15.9416C14.8135 16.7836 14.4195 17.5604 13.8013 18.1244C13.1832 18.6883 12.3841 18.9999 11.556 19H6.444C5.61595 18.9999 4.81681 18.6883 4.19865 18.1244C3.58049 17.5604 3.18645 16.7836 3.0915 15.9416L1.74825 4.0303H0.5625C0.413316 4.0303 0.270242 3.96964 0.164753 3.86167C0.0592633 3.75369 0 3.60725 0 3.45455C0 3.30185 0.0592633 3.1554 0.164753 3.04742C0.270242 2.93945 0.413316 2.87879 0.5625 2.87879H6.1875ZM4.20863 15.8103C4.2721 16.3715 4.53493 16.8893 4.9471 17.2651C5.35926 17.6409 5.89202 17.8486 6.444 17.8485H11.556C12.108 17.8486 12.6407 17.6409 13.0529 17.2651C13.4651 16.8893 13.7279 16.3715 13.7914 15.8103L15.1189 4.0303H2.88112L4.20863 15.8103ZM7.3125 6.90909C7.46168 6.90909 7.60476 6.96975 7.71025 7.07773C7.81574 7.1857 7.875 7.33215 7.875 7.48485V14.3939C7.875 14.5466 7.81574 14.6931 7.71025 14.8011C7.60476 14.909 7.46168 14.9697 7.3125 14.9697C7.16332 14.9697 7.02024 14.909 6.91475 14.8011C6.80926 14.6931 6.75 14.5466 6.75 14.3939V7.48485C6.75 7.33215 6.80926 7.1857 6.91475 7.07773C7.02024 6.96975 7.16332 6.90909 7.3125 6.90909ZM11.25 7.48485C11.25 7.33215 11.1907 7.1857 11.0852 7.07773C10.9798 6.96975 10.8367 6.90909 10.6875 6.90909C10.5383 6.90909 10.3952 6.96975 10.2898 7.07773C10.1843 7.1857 10.125 7.33215 10.125 7.48485V14.3939C10.125 14.5466 10.1843 14.6931 10.2898 14.8011C10.3952 14.909 10.5383 14.9697 10.6875 14.9697C10.8367 14.9697 10.9798 14.909 11.0852 14.8011C11.1907 14.6931 11.25 14.5466 11.25 14.3939V7.48485Z"/>
</svg>
