<svg viewBox="0 0 24 23" xmlns="http://www.w3.org/2000/svg">
<path fill-rule="evenodd" clip-rule="evenodd" d="M11.6873 21.8294C9.15494 20.2709 6.79911 18.4366 4.66198 16.3594C3.15949 14.8634 2.01565 13.0397 1.31809 11.028C0.0628135 7.12536 1.52906 2.65763 5.63245 1.33544C7.78903 0.641174 10.1443 1.03798 11.9616 2.40172C13.7795 1.03964 16.134 0.642974 18.2907 1.33544C22.3941 2.65763 23.8709 7.12536 22.6156 11.028C21.9181 13.0397 20.7742 14.8634 19.2717 16.3594C17.1346 18.4366 14.7788 20.2709 12.2464 21.8294L11.9721 22L11.6873 21.8294Z"  stroke-width="1.05" stroke-linecap="round" stroke-linejoin="round"/>
<path d="M16.3311 5.72911C17.5739 6.12613 18.457 7.24193 18.5673 8.55476" stroke-width="1.05" stroke-linecap="round" stroke-linejoin="round"/>
</svg>
