<svg viewBox="0 0 18 16" xmlns="http://www.w3.org/2000/svg">
<path fill-rule="evenodd" clip-rule="evenodd" d="M1.55397 1.75C1.3848 1.75 1.30007 1.95454 1.4197 2.07417L6.31168 6.96616C6.53483 7.18931 6.6602 7.49196 6.6602 7.80754V12.7117C6.6602 12.9878 6.43634 13.2117 6.1602 13.2117C5.88405 13.2117 5.6602 12.9878 5.6602 12.7117V7.80754C5.6602 7.75718 5.64019 7.70888 5.60458 7.67326L0.712592 2.78128C-0.0369993 2.03169 0.49389 0.75 1.55397 0.75H13.1811C14.2411 0.75 14.772 2.03169 14.0224 2.78128L9.13045 7.67326C9.09484 7.70888 9.07483 7.75718 9.07483 7.80754V14.75C9.07483 15.0261 8.85097 15.25 8.57483 15.25C8.29869 15.25 8.07483 15.0261 8.07483 14.75V7.80754C8.07483 7.49196 8.20019 7.18931 8.42334 6.96616L13.3153 2.07417C13.435 1.95454 13.3502 1.75 13.1811 1.75H1.55397Z"/>
<path fill-rule="evenodd" clip-rule="evenodd" d="M9.88843 9.5C9.88843 9.22386 10.1123 9 10.3884 9H17.1384C17.4146 9 17.6384 9.22386 17.6384 9.5C17.6384 9.77614 17.4146 10 17.1384 10H10.3884C10.1123 10 9.88843 9.77614 9.88843 9.5Z"/>
<path fill-rule="evenodd" clip-rule="evenodd" d="M9.88843 11.75C9.88843 11.4739 10.1123 11.25 10.3884 11.25H17.1384C17.4146 11.25 17.6384 11.4739 17.6384 11.75C17.6384 12.0261 17.4146 12.25 17.1384 12.25H10.3884C10.1123 12.25 9.88843 12.0261 9.88843 11.75Z"/>
<path d="M12.6384 11.75C12.6384 12.1642 12.3026 12.5 11.8884 12.5C11.4742 12.5 11.1384 12.1642 11.1384 11.75C11.1384 11.3358 11.4742 11 11.8884 11C12.3026 11 12.6384 11.3358 12.6384 11.75Z"/>
<path d="M16.3884 9.5C16.3884 9.91421 16.0526 10.25 15.6384 10.25C15.2242 10.25 14.8884 9.91421 14.8884 9.5C14.8884 9.08579 15.2242 8.75 15.6384 8.75C16.0526 8.75 16.3884 9.08579 16.3884 9.5Z"/>
<path d="M16.3884 14C16.3884 14.4142 16.0526 14.75 15.6384 14.75C15.2242 14.75 14.8884 14.4142 14.8884 14C14.8884 13.5858 15.2242 13.25 15.6384 13.25C16.0526 13.25 16.3884 13.5858 16.3884 14Z"/>
<path fill-rule="evenodd" clip-rule="evenodd" d="M9.88843 14C9.88843 13.7239 10.1123 13.5 10.3884 13.5H17.1384C17.4146 13.5 17.6384 13.7239 17.6384 14C17.6384 14.2761 17.4146 14.5 17.1384 14.5H10.3884C10.1123 14.5 9.88843 14.2761 9.88843 14Z"/>
</svg>
