<svg viewBox="0 0 16 15" fill="none" xmlns="http://www.w3.org/2000/svg">
<path d="M8.00014 14.0391C7.92927 14.038 7.85986 14.0189 7.79844 13.9835C7.72194 13.9487 5.99712 12.9681 4.24448 11.3963C1.84504 9.23327 0.627931 7.08421 0.627931 4.99773C0.6273 4.13448 0.90362 3.29379 1.41628 2.59924C1.92893 1.90469 2.65088 1.39292 3.47599 1.13916C4.30111 0.885399 5.18587 0.903029 6.00022 1.18946C6.81457 1.47589 7.51556 2.01601 8.00014 2.73043C8.48471 2.01601 9.1857 1.47589 10.0001 1.18946C10.8144 0.903029 11.6992 0.885399 12.5243 1.13916C13.3494 1.39292 14.0713 1.90469 14.584 2.59924C15.0967 3.29379 15.373 4.13448 15.3723 4.99773C15.3723 7.08421 14.1552 9.23327 11.7558 11.3963C10.0032 12.9681 8.27833 13.9487 8.20183 13.9835C8.14041 14.0189 8.071 14.038 8.00014 14.0391Z"/>
</svg>
