<svg viewBox="0 0 15 15" xmlns="http://www.w3.org/2000/svg">
<path d="M7.48114 1.64049C9.39031 1.64049 9.61551 1.64708 10.3702 1.68223C10.8233 1.68783 11.2721 1.77106 11.6971 1.92829C12.0054 2.04675 12.2853 2.22862 12.5189 2.46212C12.7524 2.69563 12.9342 2.97558 13.0527 3.28383C13.2099 3.70885 13.2931 4.15767 13.2987 4.61081C13.3339 5.36547 13.3405 5.59066 13.3405 7.49874C13.3405 9.40682 13.3339 9.63311 13.2987 10.3878C13.2931 10.8409 13.2099 11.2897 13.0527 11.7148C12.9342 12.023 12.7524 12.303 12.5189 12.5365C12.2853 12.77 12.0054 12.9518 11.6971 13.0703C11.2721 13.2275 10.8233 13.3108 10.3702 13.3164C9.61661 13.3515 9.39031 13.3581 7.48114 13.3581C5.57196 13.3581 5.34676 13.3515 4.5932 13.3164C4.14006 13.3108 3.69124 13.2275 3.26623 13.0703C2.95797 12.9518 2.67803 12.77 2.44452 12.5365C2.21101 12.303 2.02914 12.023 1.91069 11.7148C1.75345 11.2897 1.67023 10.8409 1.66463 10.3878C1.62948 9.63311 1.62289 9.40792 1.62289 7.49874C1.62289 5.58956 1.62948 5.36547 1.66463 4.61081C1.67023 4.15767 1.75345 3.70885 1.91069 3.28383C2.02914 2.97558 2.21101 2.69563 2.44452 2.46212C2.67803 2.22862 2.95797 2.04675 3.26623 1.92829C3.69124 1.77106 4.14006 1.68783 4.5932 1.68223C5.34786 1.64708 5.57306 1.64049 7.48114 1.64049ZM7.48114 0.351959C5.5412 0.351959 5.29734 0.360747 4.53499 0.395899C3.94231 0.406615 3.35577 0.518053 2.80047 0.725446C2.32634 0.90868 1.89574 1.189 1.53632 1.54843C1.17689 1.90786 0.896567 2.33845 0.713333 2.81258C0.50594 3.36789 0.394502 3.95442 0.383786 4.5471C0.348634 5.30945 0.339844 5.55332 0.339844 7.49325C0.339844 9.43319 0.348634 9.67815 0.383786 10.4405C0.394502 11.0332 0.50594 11.6197 0.713333 12.175C0.896567 12.6492 1.17689 13.0797 1.53632 13.4392C1.89574 13.7986 2.32634 14.0789 2.80047 14.2622C3.35577 14.4695 3.94231 14.581 4.53499 14.5917C5.29734 14.6269 5.5412 14.6356 7.48114 14.6356C9.42107 14.6356 9.66603 14.6269 10.4284 14.5917C11.0211 14.581 11.6076 14.4695 12.1629 14.2622C12.637 14.0789 13.0676 13.7986 13.4271 13.4392C13.7865 13.0797 14.0668 12.6492 14.25 12.175C14.4574 11.6197 14.5689 11.0332 14.5796 10.4405C14.6147 9.67815 14.6235 9.43429 14.6235 7.49325C14.6235 5.55222 14.6147 5.30945 14.5796 4.5471C14.5689 3.95442 14.4574 3.36789 14.25 2.81258C14.0668 2.33845 13.7865 1.90786 13.4271 1.54843C13.0676 1.189 12.637 0.90868 12.1629 0.725446C11.6076 0.518053 11.0211 0.406615 10.4284 0.395899C9.66603 0.360747 9.42217 0.351959 7.48114 0.351959Z"/>
<path d="M7.48159 3.83048C6.75567 3.83048 6.04606 4.04575 5.4425 4.44907C4.83894 4.85239 4.36853 5.42564 4.09079 6.09632C3.81304 6.767 3.74043 7.50498 3.88212 8.21693C4.02382 8.92888 4.37348 9.58282 4.88686 10.096C5.40023 10.6093 6.05427 10.9587 6.76627 11.1002C7.47826 11.2417 8.21622 11.1689 8.88682 10.8909C9.55741 10.613 10.1305 10.1424 10.5337 9.53871C10.9368 8.93503 11.1519 8.22535 11.1516 7.49943C11.1516 7.01753 11.0567 6.54034 10.8723 6.09513C10.6878 5.64992 10.4174 5.24541 10.0766 4.9047C9.73583 4.56399 9.33124 4.29376 8.88597 4.10944C8.44071 3.92512 7.96349 3.83033 7.48159 3.83048ZM7.48159 9.88206C7.01035 9.88206 6.54969 9.74232 6.15787 9.48052C5.76605 9.21871 5.46066 8.8466 5.28033 8.41123C5.09999 7.97586 5.05281 7.49679 5.14475 7.03461C5.23668 6.57242 5.4636 6.14788 5.79681 5.81466C6.13003 5.48145 6.55458 5.25452 7.01677 5.16259C7.47895 5.07066 7.95801 5.11784 8.39338 5.29818C8.82875 5.47851 9.20086 5.7839 9.46267 6.17572C9.72447 6.56754 9.86422 7.0282 9.86422 7.49943C9.86422 8.13135 9.61319 8.73738 9.16636 9.18421C8.71953 9.63104 8.1135 9.88206 7.48159 9.88206Z"/>
<path d="M11.2964 4.54339C11.7702 4.54339 12.1543 4.15928 12.1543 3.68547C12.1543 3.21165 11.7702 2.82755 11.2964 2.82755C10.8226 2.82755 10.4385 3.21165 10.4385 3.68547C10.4385 4.15928 10.8226 4.54339 11.2964 4.54339Z"/>
</svg>
