<svg viewBox="0 0 18 17" xmlns="http://www.w3.org/2000/svg">
<path fill-rule="evenodd" clip-rule="evenodd" d="M8.62441 3.09678C10.215 1.50621 12.7938 1.50621 14.3844 3.09678C15.975 4.68736 15.975 7.26619 14.3844 8.85676L12.8818 10.3594C12.6743 10.5668 12.3379 10.5668 12.1305 10.3594C11.923 10.1519 11.923 9.81552 12.1305 9.60806L13.6331 8.10546C14.8087 6.92982 14.8087 5.02373 13.6331 3.84808C12.4574 2.67244 10.5513 2.67244 9.37571 3.84808L7.87311 5.35069C7.66564 5.55815 7.32927 5.55815 7.12181 5.35069C6.91434 5.14322 6.91434 4.80685 7.12181 4.59939L8.62441 3.09678ZM5.86964 6.60285C6.0771 6.81032 6.0771 7.14669 5.86964 7.35416L4.36703 8.85676C3.19139 10.0324 3.19139 11.9385 4.36703 13.1141C5.54268 14.2898 7.44877 14.2898 8.62441 13.1141L10.127 11.6115C10.3345 11.4041 10.6708 11.4041 10.8783 11.6115C11.0858 11.819 11.0858 12.1554 10.8783 12.3628L9.37571 13.8654C7.78513 15.456 5.20631 15.456 3.61573 13.8654C2.02516 12.2749 2.02516 9.69603 3.61573 8.10546L5.11834 6.60285C5.3258 6.39539 5.66217 6.39539 5.86964 6.60285Z"/>
<path opacity="0.3" fill-rule="evenodd" clip-rule="evenodd" d="M7.12174 10.36C6.91428 10.1526 6.91428 9.81619 7.12174 9.60872L10.1269 6.60352C10.3344 6.39605 10.6708 6.39605 10.8782 6.60352C11.0857 6.81099 11.0857 7.14736 10.8782 7.35482L7.87305 10.36C7.66558 10.5675 7.32921 10.5675 7.12174 10.36Z"/>
</svg>
