<svg viewBox="0 0 40 38" xmlns="http://www.w3.org/2000/svg">
<path d="M16.7931 1.80334C18.3926 -0.342894 21.608 -0.342896 23.2075 1.80334L23.8099 2.61162C24.7632 3.89064 26.3852 4.48102 27.9376 4.11396L28.9186 3.882C31.5235 3.26607 33.9866 5.33285 33.8324 8.00515L33.7743 9.01154C33.6824 10.6041 34.5455 12.0989 35.9706 12.8156L36.8712 13.2685C39.2626 14.4711 39.8209 17.6376 37.985 19.5855L37.2936 20.3191C36.1996 21.48 35.8998 23.1799 36.5309 24.645L36.9297 25.5708C37.9886 28.0292 36.3809 30.8137 33.7224 31.1259L32.7212 31.2434C31.137 31.4295 29.8147 32.539 29.3563 34.0669L29.0667 35.0325C28.2977 37.5964 25.2763 38.6961 23.0391 37.2264L22.1966 36.6729C20.8634 35.797 19.1372 35.797 17.804 36.6729L16.9615 37.2264C14.7243 38.6961 11.7029 37.5964 10.9339 35.0325L10.6442 34.0669C10.1859 32.539 8.86363 31.4295 7.27935 31.2434L6.27816 31.1259C3.61967 30.8137 2.01201 28.0292 3.07092 25.5708L3.46971 24.645C4.10075 23.1799 3.80101 21.48 2.70695 20.3191L2.01556 19.5855C0.179687 17.6376 0.738022 14.4711 3.12942 13.2685L4.03002 12.8156C5.45514 12.0989 6.31821 10.6041 6.2263 9.01154L6.16821 8.00515C6.01398 5.33285 8.47707 3.26607 11.082 3.882L12.063 4.11396C13.6154 4.48102 15.2374 3.89064 16.1907 2.61162L16.7931 1.80334Z"/>
<path d="M18.0701 12.0272C18.9047 10.5019 21.0954 10.5019 21.93 12.0272L22.9338 13.8617C23.25 14.4396 23.8085 14.8453 24.4558 14.9675L26.5107 15.3553C28.2193 15.6777 28.8963 17.7612 27.7035 19.0263L26.269 20.5478C25.8171 21.0271 25.6038 21.6837 25.6876 22.3371L25.9539 24.4112C26.1752 26.1358 24.4028 27.4235 22.8311 26.6801L20.9407 25.7859C20.3452 25.5043 19.6549 25.5043 19.0594 25.7859L17.169 26.6801C15.5973 27.4235 13.8249 26.1358 14.0463 24.4112L14.3125 22.3371C14.3963 21.6837 14.183 21.0271 13.7311 20.5478L12.2966 19.0263C11.1039 17.7612 11.7808 15.6777 13.4894 15.3553L15.5443 14.9675C16.1916 14.8453 16.7501 14.4396 17.0663 13.8617L18.0701 12.0272Z" fill-opacity="0"/>
</svg>
