<svg width="22" height="22" viewBox="0 0 22 22" fill="none" xmlns="http://www.w3.org/2000/svg">
<path fill-rule="evenodd" clip-rule="evenodd" d="M0.723085 3.12161C0.50353 1.67179 1.66432 0.5 3.06449 0.5H6.12311C6.74791 0.5 7.30728 0.887289 7.52716 1.47212L8.64036 4.433C8.73666 4.68915 8.76106 4.96677 8.7109 5.2358L8.0452 8.80639C8.02738 8.90198 8.03795 8.99341 8.07096 9.06981C8.98931 11.1954 10.4942 12.6301 12.9285 13.9015C13.0203 13.9494 13.13 13.9656 13.2397 13.9443L16.7435 13.2654C17.0179 13.2122 17.3017 13.2367 17.5629 13.3363L20.5345 14.4684C21.1161 14.69 21.5005 15.2477 21.5005 15.8701V18.765C21.5005 20.2471 20.2015 21.4285 18.6964 21.1016L18.6961 21.1015C15.6553 20.4392 10.0565 18.7631 6.14693 14.8536C2.40963 11.1163 1.14827 5.93875 0.723132 3.12193M3.06449 1.5C2.20875 1.5 1.59361 2.19204 1.71184 2.97207L1.71189 2.97239C2.12679 5.72164 3.34548 10.6379 6.85404 14.1464C10.5544 17.8468 15.9173 19.4727 18.9086 20.1244C19.7335 20.3035 20.5005 19.6689 20.5005 18.765V15.8701C20.5005 15.6627 20.3724 15.4768 20.1785 15.4029L17.2069 14.2707C17.1198 14.2376 17.0252 14.2294 16.9337 14.2471L13.43 14.9261C13.1061 14.9888 12.7652 14.9444 12.4655 14.7879C9.8871 13.4412 8.18569 11.8567 7.15298 9.46641C7.03564 9.19483 7.01049 8.90016 7.06214 8.6231L7.72784 5.05252C7.74456 4.96284 7.73643 4.8703 7.70433 4.78492L6.59113 1.82404C6.51784 1.6291 6.33138 1.5 6.12311 1.5H3.06449Z" fill="#9B9FB3"/>
</svg>
