<svg viewBox="0 0 12 11" xmlns="http://www.w3.org/2000/svg">
<path fill-rule="evenodd" clip-rule="evenodd" d="M5.60426 1C3.33754 1 1.5 2.83754 1.5 5.10426C1.5 7.37098 3.33754 9.20852 5.60426 9.20852C7.87098 9.20852 9.70852 7.37098 9.70852 5.10426C9.70852 2.83754 7.87098 1 5.60426 1ZM0.5 5.10426C0.5 2.28526 2.78526 0 5.60426 0C8.42327 0 10.7085 2.28526 10.7085 5.10426C10.7085 7.92327 8.42327 10.2085 5.60426 10.2085C2.78526 10.2085 0.5 7.92327 0.5 5.10426Z"/>
<path fill-rule="evenodd" clip-rule="evenodd" d="M8.45067 8.19183C8.64568 7.99631 8.96226 7.9959 9.15778 8.19091L10.9629 9.99135C11.1584 10.1864 11.1588 10.5029 10.9638 10.6985C10.7688 10.894 10.4522 10.8944 10.2567 10.6994L8.45159 8.89893C8.25608 8.70393 8.25567 8.38734 8.45067 8.19183Z"/>
</svg>
