<svg viewBox="0 0 20 19" xmlns="http://www.w3.org/2000/svg">
<path fill-rule="evenodd" clip-rule="evenodd" d="M15.146 14.2956C15.341 14.1001 15.6576 14.0997 15.8531 14.2947L19.5197 17.9518C19.7152 18.1468 19.7156 18.4633 19.5206 18.6589C19.3256 18.8544 19.009 18.8548 18.8135 18.6598L15.1469 15.0027C14.9514 14.8077 14.951 14.4911 15.146 14.2956Z"/>
<path fill-rule="evenodd" clip-rule="evenodd" d="M9.00034 1.10312C4.55689 1.10312 0.954773 4.70524 0.954773 9.14868C0.954773 13.5921 4.55689 17.1942 9.00034 17.1942C13.4438 17.1942 17.0459 13.5921 17.0459 9.14868C17.0459 4.70524 13.4438 1.10312 9.00034 1.10312ZM0.0458984 9.14868C0.0458984 4.20328 4.05494 0.194244 9.00034 0.194244C13.9457 0.194244 17.9548 4.20328 17.9548 9.14868C17.9548 14.0941 13.9457 18.1031 9.00034 18.1031C4.05494 18.1031 0.0458984 14.0941 0.0458984 9.14868Z"/>
<path fill-rule="evenodd" clip-rule="evenodd" d="M8.85242 4.15086C9.52117 4.1311 10.1871 4.24575 10.8107 4.48802C11.4344 4.73029 12.003 5.09526 12.4831 5.5613C12.9631 6.02735 13.3447 6.58499 13.6053 7.20119C13.8659 7.8174 14.0001 8.47964 14.0001 9.14868C14.0001 9.42482 13.7763 9.64868 13.5001 9.64868C13.224 9.64868 13.0001 9.42482 13.0001 9.14868C13.0001 8.61345 12.8927 8.08366 12.6842 7.59069C12.4758 7.09773 12.1705 6.65161 11.7865 6.27878C11.4025 5.90594 10.9475 5.61397 10.4486 5.42015C9.9497 5.22633 9.41696 5.13462 8.88196 5.15043C8.60594 5.15859 8.37557 4.94144 8.36741 4.66542C8.35925 4.3894 8.5764 4.15902 8.85242 4.15086Z"/>
</svg>
