<svg viewBox="0 0 16 14" xmlns="http://www.w3.org/2000/svg">
<path d="M14.1856 0.791341L0.952045 5.80376C0.228139 6.01247 0.251207 6.72759 0.786172 6.90225L4.10362 7.93702L5.37237 11.829C5.52726 12.2541 5.65249 12.4145 5.91613 12.4189C6.17977 12.4233 6.2995 12.3211 6.5873 12.0663C6.92344 11.751 7.43644 11.2534 8.24712 10.4646L11.6964 13.0142C12.3313 13.3647 12.7949 13.1834 12.9487 12.4244L15.1116 1.72506C15.3423 0.793538 14.793 0.51562 14.1856 0.791341ZM4.61991 7.69316L12.1567 2.96964C12.529 2.72029 12.6455 2.9982 12.4774 3.18934L6.21601 8.81911L5.89416 11.629L4.61991 7.69316Z"/>
</svg>
