<svg viewBox="0 0 15 16" xmlns="http://www.w3.org/2000/svg">
<path d="M12.6146 1.98076C12.0767 1.538 11.4441 1.22492 10.7658 1.06573C9.07772 0.618634 7.31782 0.509991 5.58754 0.746062C4.70262 0.848188 3.8452 1.11771 3.06101 1.54027C2.13718 2.05876 1.50115 2.80573 1.21994 3.8416C1.02925 4.57779 0.918761 5.33245 0.890391 6.09241C0.834368 7.21617 0.870619 8.33224 1.15842 9.42744C1.48797 10.6962 2.21407 11.6244 3.45317 12.1275C3.58829 12.1814 3.71571 12.256 3.84973 12.3121C3.90356 12.3311 3.9491 12.3682 3.97856 12.4171C4.00802 12.466 4.01956 12.5236 4.0112 12.5801C4.0112 13.4589 4.0112 14.3377 4.0112 15.2505C4.34075 14.9364 4.56045 14.7013 4.72522 14.52C5.21405 13.9708 5.67542 13.5094 6.18402 12.9822C6.44217 12.7163 6.33341 12.7295 6.73327 12.7361C7.20342 12.7438 7.94161 12.7614 8.41176 12.7251C9.30373 12.6733 10.1876 12.526 11.0481 12.2857C12.1466 11.9562 13.0188 11.3718 13.4648 10.2656C13.5887 9.9743 13.6911 9.67434 13.7713 9.36812C14.1986 7.61053 14.1415 5.84416 13.7845 4.08218C13.6142 3.2627 13.2638 2.5355 12.6146 1.98076ZM7.17706 3.0485C7.18584 2.87933 7.2869 2.81342 7.44289 2.82111C8.80172 2.88592 9.82442 3.29016 10.6109 4.3491C11.0723 4.96975 11.3206 5.80791 11.3458 6.58564C11.3458 6.70208 11.3513 6.81742 11.3458 6.93276C11.3403 7.0481 11.2821 7.16015 11.1371 7.16125C10.9921 7.16235 10.9174 7.08325 10.9097 6.93496C10.8779 6.36361 10.7536 5.8012 10.5417 5.26964C10.1166 4.23596 9.30264 3.67903 8.25687 3.411C7.9813 3.33603 7.69977 3.28495 7.41543 3.25831C7.2869 3.24733 7.16717 3.21986 7.17706 3.0485ZM8.54687 4.49191C8.27275 4.39134 7.98946 4.31776 7.70104 4.27222C7.56043 4.25134 7.45937 4.17665 7.48134 4.01297C7.4829 3.98035 7.49172 3.94848 7.50716 3.9197C7.52259 3.89091 7.54425 3.86592 7.57056 3.84656C7.59686 3.8272 7.62715 3.81395 7.65923 3.80777C7.6913 3.80159 7.72435 3.80265 7.75596 3.81085C8.70396 3.89983 9.44434 4.25024 9.95294 5.06642C10.1936 5.47032 10.3172 5.93319 10.31 6.40329C10.2957 6.69219 10.2517 6.76689 10.0903 6.7625C9.84969 6.75591 9.88484 6.55818 9.87056 6.41317C9.84147 6.19033 9.79556 5.97 9.73324 5.75408C9.65986 5.45984 9.51227 5.18933 9.30458 4.96836C9.09688 4.7474 8.83601 4.58336 8.54687 4.49191ZM9.34987 6.09132C9.3458 6.15428 9.33847 6.21697 9.3279 6.27916C9.32111 6.32816 9.29631 6.37286 9.25832 6.40455C9.22034 6.43624 9.17191 6.45263 9.12248 6.45052C9.07326 6.45267 9.02491 6.43695 8.98636 6.40627C8.9478 6.37559 8.92163 6.33201 8.91267 6.28356C8.8918 6.21435 8.88631 6.13966 8.87203 6.06386C8.84748 5.88773 8.77008 5.72319 8.65005 5.59197C8.53002 5.46076 8.37301 5.36905 8.19975 5.32896C8.15361 5.31688 8.10528 5.31029 8.05805 5.2971C7.93831 5.26415 7.78892 5.26196 7.78452 5.0862C7.78452 4.9412 7.89437 4.85441 8.0899 4.84233C8.25217 4.84746 8.41141 4.88756 8.55676 4.95987C9.05548 5.20813 9.28836 5.54977 9.34987 6.09132ZM11.3513 10.1217C11.2324 10.4068 11.0491 10.6605 10.8159 10.8631C10.5827 11.0657 10.3057 11.2116 10.0068 11.2894C9.78452 11.3398 9.55169 11.3118 9.34767 11.2103C6.47182 9.98547 4.39458 7.96644 3.21809 5.05104C3.13298 4.8522 3.08997 4.63789 3.09177 4.42161C3.09177 3.67024 3.75086 2.97709 4.47367 2.93645C4.5684 2.93042 4.66334 2.94442 4.7523 2.97755C4.84126 3.01067 4.92224 3.06217 4.98996 3.12868C5.49324 3.59918 5.9032 4.16046 6.1983 4.78302C6.35978 5.12355 6.29167 5.36412 6.00057 5.60799C5.95444 5.64643 5.9039 5.68049 5.85447 5.71783C5.4678 6.00124 5.38102 6.29015 5.56667 6.73504C5.86071 7.4507 6.37215 8.0559 7.02876 8.46516C7.2747 8.63473 7.54362 8.76827 7.82736 8.86172C7.94463 8.89998 8.07114 8.89927 8.18796 8.85966C8.30478 8.82006 8.40565 8.74371 8.47547 8.64202C8.49525 8.61895 8.51282 8.59368 8.5304 8.56951C8.90059 8.05542 9.29934 7.96645 9.8354 8.30039C10.2948 8.58844 10.7318 8.91084 11.1426 9.26485C11.4227 9.50323 11.4941 9.78335 11.3513 10.1217Z"/>
</svg>
