<svg viewBox="0 0 19 13" xmlns="http://www.w3.org/2000/svg">
<path fill-rule="evenodd" clip-rule="evenodd" d="M18.5293 10.3515C18.0986 9.48415 17.5311 8.69184 16.8486 8.00496C16.6203 7.74697 16.3813 7.4987 16.1321 7.26079L16.102 7.2315C16.0095 7.14166 15.9182 7.05061 15.8281 6.95837C16.7612 5.6609 17.5596 4.27174 18.211 2.81241L18.2372 2.75383L18.2554 2.69208C18.3417 2.40471 18.4398 1.85846 18.0915 1.36446C17.7305 0.854622 17.1534 0.762788 16.7662 0.762788H14.9874C14.6149 0.745814 14.2466 0.8471 13.9352 1.05215C13.6238 1.2572 13.3852 1.5555 13.2536 1.90437C12.8708 2.81609 12.3915 3.68421 11.8239 4.49391V2.40946C11.8239 2.14029 11.7985 1.68904 11.5096 1.30904C11.1644 0.853039 10.6649 0.762788 10.3181 0.762788H7.49503C7.12665 0.754312 6.76912 0.887841 6.49648 1.13572C6.22384 1.3836 6.05698 1.72685 6.03045 2.09437L6.02808 2.13V2.16562C6.02808 2.54958 6.18008 2.833 6.30199 3.01112C6.35662 3.09108 6.41441 3.16391 6.45162 3.20983L6.45953 3.22012C6.49912 3.26921 6.52524 3.30166 6.55137 3.33808C6.62103 3.4315 6.71999 3.57716 6.74849 3.95241V5.11854C6.1818 4.16958 5.71714 3.16331 5.36228 2.11654L5.35595 2.09912L5.34962 2.0825C5.25303 1.82996 5.09866 1.46262 4.78912 1.18237C4.42812 0.85383 4.00062 0.762788 3.61191 0.762788H1.80691C1.41345 0.762788 0.939242 0.854622 0.585367 1.2275C0.237826 1.59483 0.198242 2.035 0.198242 2.26775V2.37383L0.220409 2.47675C0.720188 4.79694 1.7501 6.97002 3.22953 8.82591C3.90592 9.89253 4.82418 10.7847 5.90984 11.4301C6.9955 12.0755 8.21799 12.4559 9.47816 12.5404L9.51062 12.5428H9.54387C10.1186 12.5428 10.7179 12.4929 11.1684 12.1929C11.7756 11.7875 11.8239 11.1661 11.8239 10.8557V9.95483C11.9798 10.0815 12.173 10.2509 12.4097 10.4789C12.6963 10.7655 12.9243 11.0141 13.1198 11.231L13.2243 11.3466C13.3763 11.516 13.5259 11.683 13.6621 11.82C13.8331 11.9918 14.0445 12.181 14.3089 12.3211C14.5963 12.4723 14.8979 12.5412 15.2177 12.5412H17.0235C17.4043 12.5412 17.9498 12.451 18.3337 12.006C18.7517 11.5215 18.7201 10.927 18.5887 10.5003L18.5649 10.4235L18.5293 10.3515ZM14.001 10.4354C13.7556 10.1611 13.503 9.89342 13.2433 9.63262L13.241 9.63025C12.1667 8.59475 11.6655 8.41504 11.3109 8.41504C11.1217 8.41504 10.9135 8.43562 10.7781 8.60504C10.7171 8.68585 10.6771 8.7805 10.6617 8.88054C10.6426 8.9967 10.6341 9.11435 10.6364 9.23204V10.8557C10.6364 11.0576 10.6031 11.1423 10.5097 11.2041C10.3854 11.2872 10.1202 11.3545 9.55099 11.3545C8.46974 11.2809 7.42139 10.9518 6.49213 10.3941C5.56287 9.83644 4.77924 9.06619 4.20566 8.14666L4.19933 8.13637L4.19141 8.12687C2.81321 6.41145 1.8527 4.39911 1.38574 2.24875C1.38891 2.14583 1.41108 2.08329 1.44749 2.04529C1.4847 2.00571 1.57574 1.95029 1.80691 1.95029H3.61191C3.8122 1.95029 3.9167 1.99462 3.99191 2.06191C4.07583 2.1395 4.15024 2.27012 4.23891 2.50287C4.68224 3.80596 5.28074 5.02512 5.84837 5.9205C6.13178 6.36858 6.41045 6.74146 6.6622 7.00508C6.78808 7.1365 6.91078 7.24575 7.02874 7.32333C7.14195 7.39775 7.27099 7.45712 7.40399 7.45712C7.47366 7.45712 7.5552 7.44921 7.63358 7.41516C7.71822 7.37778 7.7879 7.31311 7.83149 7.2315C7.91303 7.08266 7.93599 6.86337 7.93599 6.576V3.9057C7.89403 3.25812 7.69849 2.89316 7.50849 2.63429C7.47001 2.58251 7.43042 2.53157 7.38974 2.4815L7.37945 2.46883C7.34569 2.42783 7.31347 2.38557 7.28287 2.34216C7.2439 2.29375 7.22044 2.2347 7.21558 2.17275C7.22179 2.10984 7.2518 2.05168 7.29949 2.01018C7.34717 1.96868 7.40891 1.94697 7.47208 1.9495H10.3181C10.4812 1.9495 10.5358 1.98908 10.5635 2.02629C10.6031 2.07775 10.6364 2.18462 10.6364 2.40946V5.99412C10.6364 6.42004 10.8327 6.70821 11.1177 6.70821C11.4455 6.70821 11.6822 6.5095 12.0954 6.09625L12.1025 6.08833L12.1089 6.08121C13.0359 4.95093 13.7933 3.69162 14.3572 2.34296L14.3604 2.33346C14.4027 2.2143 14.4829 2.11227 14.5887 2.04295C14.6945 1.97362 14.82 1.9408 14.9462 1.9495H16.767C17.014 1.9495 17.0948 2.01283 17.1217 2.05004C17.1494 2.08962 17.1692 2.17433 17.1217 2.34058C16.4714 3.79436 15.6675 5.17443 14.7237 6.45725L14.7174 6.46675C14.6264 6.60687 14.5258 6.76204 14.5116 6.93937C14.4957 7.13096 14.5781 7.30433 14.723 7.49116C14.8282 7.64633 15.046 7.85929 15.2668 8.07541L15.2874 8.096C15.5186 8.32241 15.7695 8.56783 15.9706 8.80533L15.9762 8.81087L15.9817 8.81721C16.5813 9.4153 17.0799 10.1067 17.4582 10.8645C17.5183 11.0703 17.4819 11.1764 17.4344 11.231C17.3798 11.2943 17.2571 11.3537 17.0243 11.3537H15.2177C15.0946 11.3567 14.9728 11.3281 14.8639 11.2706C14.7304 11.1929 14.6092 11.0958 14.5045 10.9824C14.3912 10.8692 14.2685 10.7322 14.1181 10.5652L14.0017 10.4354H14.001Z"/>
</svg>
