<svg width="47" height="51" viewBox="0 0 47 51" fill="none" xmlns="http://www.w3.org/2000/svg">
<g clip-path="url(#clip0_1536_22591)">
<path d="M12.1006 35.5273C9.67517 36.9512 4.22162 42.0875 6.17798 49.0018C9.0797 49.4181 15.9127 48.1498 20.0309 39.7463" stroke="#2D83D2" stroke-width="1.44229" stroke-linecap="round"/>
<path d="M15.5583 37.8457C15.0223 39.34 9.15162 46.0117 6.12024 48.308" stroke="#2D83D2" stroke-width="1.44229" stroke-linecap="round"/>
<path d="M35.0635 35.5273C37.4889 36.9512 42.9424 42.0875 40.9861 49.0018C38.0844 49.4181 31.2514 48.1498 27.1332 39.7463" stroke="#2D83D2" stroke-width="1.44229" stroke-linecap="round"/>
<path d="M31.6073 37.8467C32.1433 39.341 38.014 46.0127 41.0454 48.309" stroke="#2D83D2" stroke-width="1.44229" stroke-linecap="round"/>
<circle cx="23.4979" cy="21.7274" r="21.0365" fill="#FEFEFE" stroke="#2D83D2" stroke-width="1.44229"/>
<circle cx="23.4967" cy="21.7272" r="16.9318" fill="#FEFEFE" stroke="#2D83D2" stroke-width="1.44229"/>
<path d="M18.668 14.6683C18.668 14.6683 19.8624 11.4246 21.4421 11.425C23.0219 11.4253 28.1026 14.6683 28.1026 14.6683" stroke="#2D83D2" stroke-width="1.44229"/>
<path d="M22.5424 21.7764C27.1943 17.8745 29.2389 19.662 32.8897 17.8325C33.5046 17.5244 34.2748 17.9324 34.2245 18.6183C33.9242 22.719 32.3538 28.5957 27.9949 31.3595M27.9949 31.3595C26.6306 32.2246 25.7738 32.6409 23.8166 32.7461C15.5057 33.1929 12.7163 24.2648 12.5157 18.5266C12.4924 17.858 13.2414 17.4861 13.8126 17.8344C21.831 22.7236 26.0967 19.8823 27.9949 31.3595Z" stroke="#2D83D2" stroke-width="1.44229"/>
<path d="M15.8981 19.0112C15.5387 17.8847 14.9952 16.591 14.9418 14.7203C14.923 14.0628 15.6872 13.6936 16.2931 13.9497C19.5259 15.3164 24.6695 15.4233 27.2789 19.0112" stroke="#2D83D2" stroke-width="1.44229"/>
<path d="M30.6476 18.4877C31.4027 17.0502 31.7204 16.0479 31.8334 14.7943C31.8927 14.1354 31.1635 13.7198 30.5556 13.9806C27.3307 15.3639 25.4882 14.2532 23.2353 16.2411" stroke="#2D83D2" stroke-width="1.44229"/>
</g>
<defs>
<clipPath id="clip0_1536_22591">
<rect width="45.0195" height="50.0217" fill="white" transform="translate(0.990234)"/>
</clipPath>
</defs>
</svg>
