<svg width="70" height="51" viewBox="0 0 70 51" fill="none" xmlns="http://www.w3.org/2000/svg">
<path d="M9.27129 15.3126C9.27129 13.909 10.409 12.7713 11.8125 12.7713H36.4839C37.6809 12.7713 38.6513 13.7417 38.6513 14.9387V40.605C38.6513 40.927 38.3902 41.188 38.0683 41.188H11.4387C10.2417 41.188 9.27129 40.2176 9.27129 39.0206V15.3126Z" fill="white" stroke="#2D83D2" stroke-width="1.44492"/>
<path d="M38.6639 15.7156H48.9104C52.0447 15.7156 54.8888 17.5502 56.1812 20.4057L56.431 20.9576L58.2984 25.8035L58.9726 25.5437L58.2984 25.8035C58.4564 26.2134 58.7433 26.561 59.1158 26.7938L64.4055 30.1005C65.3392 30.6842 65.9065 31.7078 65.9065 32.8089V37.8847C65.9065 39.7088 64.4277 41.1875 62.6036 41.1875L39.2469 41.1874C38.9249 41.1874 38.6639 40.9264 38.6639 40.6044V15.7156Z" fill="white" stroke="#2D83D2" stroke-width="1.44492"/>
<circle cx="24.0888" cy="40.4179" r="7.11047" fill="white" stroke="#2D83D2" stroke-width="1.44492"/>
<circle cx="24.0879" cy="40.418" r="3.44941" fill="white" stroke="#2D83D2" stroke-width="1.44492"/>
<circle cx="54.2841" cy="40.4179" r="7.11047" fill="white" stroke="#2D83D2" stroke-width="1.44492"/>
<circle cx="54.2851" cy="40.418" r="3.44941" fill="white" stroke="#2D83D2" stroke-width="1.44492"/>
<path d="M10.3184 47.5791L67.8848 47.5791" stroke="#2D83D2" stroke-width="1.44205" stroke-linecap="round"/>
<path d="M42.66 20.0731C42.66 20.0515 42.6775 20.034 42.699 20.034H48.8921C50.3308 20.034 51.6308 20.8797 52.2109 22.1945L54.2925 26.913C54.2971 26.9235 54.2972 26.9297 54.2968 26.9341C54.2962 26.9401 54.2938 26.9482 54.2886 26.9563C54.2834 26.9643 54.2778 26.9687 54.2745 26.9706C54.2727 26.9717 54.2692 26.9736 54.2592 26.9736H42.699C42.6775 26.9736 42.66 26.9561 42.66 26.9346V20.0731Z" fill="white" stroke="#2D83D2" stroke-width="1.44492"/>
<path d="M18.6666 23.6066C15.1397 23.5171 5.20852 21.2425 1.47131 19.3721C3.7012 22.5292 9.73101 29.6173 12.8866 30.3493L22.5194 30.3493L21.5561 26.9779L18.6666 23.6066Z" fill="white" stroke="#2D83D2" stroke-width="1.44492"/>
<path d="M1.47532 19.3751C3.67487 21.325 2.01739 19.696 2.01739 19.696" stroke="#2D83D2" stroke-width="1.44492" stroke-linecap="round"/>
<path d="M25.0949 26.2026C25.1048 27.1451 26.0445 29.7212 26.8502 30.3506" stroke="#2D83D2" stroke-width="1.44492"/>
<path d="M21.0701 26.9775C21.5616 27.7817 22.3836 29.3881 22.0334 30.3491" stroke="#2D83D2" stroke-width="1.44492"/>
<path d="M23.7328 5.76563C22.3152 4.11893 19.2116 1.1176 18.1387 2.28589C16.7976 3.74626 17.1605 5.01106 15.8046 4.7156C14.4486 4.42014 12.8727 3.69887 11.8804 5.35251C11.0866 6.67542 10.822 9.50227 10.7889 10.7503L16.2614 13.0102L25.8943 10.1204L23.7328 5.76563Z" fill="white" stroke="#2D83D2" stroke-width="1.44492"/>
<path d="M14.407 11.6972C14.4599 7.37177 19.5548 6.54667 21.8462 9.24904L17.6964 15.1444L14.407 11.6972Z" fill="white" stroke="#2D83D2" stroke-width="1.44492"/>
<path d="M21.6977 14.0886C27.974 17.4517 26.0938 25.2486 23.2755 26.547C15.3381 30.026 9.38527 18.8837 6.61937 12.3007C6.40977 11.8019 6.7336 11.2475 7.27218 11.1952C10.6883 10.8639 16.0438 11.059 21.6977 14.0886Z" fill="white" stroke="#2D83D2" stroke-width="1.44492"/>
<path d="M17.6688 15.8262C15.3112 22.545 20.7292 27.2376 23.6847 26.2919C31.8875 23.4977 29.87 11.07 27.5739 4.32782C27.3995 3.8156 26.7865 3.62512 26.354 3.95031C23.6108 6.01298 19.7927 9.77351 17.6688 15.8262Z" fill="white" stroke="#2D83D2" stroke-width="1.44492"/>
<path d="M37.4546 30.3506H9.51953" stroke="#2D83D2" stroke-width="1.44492" stroke-linecap="round"/>
</svg>
