<svg width="54" height="55" viewBox="0 0 54 55" fill="none" xmlns="http://www.w3.org/2000/svg">
<path d="M38.1259 32.6017C39.2737 27.3403 32.5183 26.9297 28.9972 27.3821L27.7863 28.8218C28.7349 32.0777 36.6912 39.1785 38.1259 32.6017Z" stroke="#2D83D2" stroke-width="1.46915"/>
<path d="M28.6314 28.3036C30.6252 28.2588 37.5931 32.3439 37.689 33.5889" stroke="#2D83D2" stroke-width="1.46915" stroke-linecap="round"/>
<path d="M37.6878 20.5216C33.7833 16.8128 29.9306 22.3771 28.4923 25.6228L29.0959 27.4045C32.372 28.2809 42.5685 25.1575 37.6878 20.5216Z" fill="white" stroke="#2D83D2" stroke-width="1.46915"/>
<path d="M29.0933 26.414C30.9419 25.831 33.6901 24.1361 34.209 23.3604" stroke="#2D83D2" stroke-width="1.46915" stroke-linecap="round"/>
<path d="M31.6396 39.6166C35.8638 36.2765 30.9011 31.6749 27.8917 29.7916L26.0424 30.1368C24.711 33.2558 26.3594 43.7918 31.6396 39.6166Z" fill="white" stroke="#2D83D2" stroke-width="1.46915"/>
<path d="M27.0257 30.2725C27.6625 30.9679 29.3008 34.783 29.436 35.8737" stroke="#2D83D2" stroke-width="1.46915" stroke-linecap="round"/>
<path d="M21.5112 39.847C26.8027 40.8473 26.2791 33.4529 25.3043 30.0393L23.6994 29.0578C20.6224 30.4835 15.2693 38.667 21.5112 39.847Z" fill="white" stroke="#2D83D2" stroke-width="1.46915"/>
<path d="M24.0521 29.4695C24.171 30.6633 22.178 37.8301 20.8555 39.1306" stroke="#2D83D2" stroke-width="1.46915" stroke-linecap="round"/>
<path d="M31.1495 14.6638C25.8366 13.7846 25.7694 20.5521 26.3999 24.0457L27.8992 25.182C31.1028 24.0693 37.7907 15.7629 31.1495 14.6638Z" fill="white" stroke="#2D83D2" stroke-width="1.46915"/>
<path d="M27.3416 24.3634C29.3733 22.2842 31.6585 15.2047 30.9433 14.9799" stroke="#2D83D2" stroke-width="1.46915" stroke-linecap="round"/>
<path d="M14.4658 34.5423C18.0767 38.5375 21.9306 31.7327 22.9523 28.3328L22.131 26.6404C18.7711 26.1799 9.96104 29.558 14.4658 34.5423Z" fill="#FEFEFE" stroke="#2D83D2" stroke-width="1.46915"/>
<path d="M22.2601 27.6217C21.9001 28.8274 15.6396 33.0451 14.1571 33.4822" stroke="#2D83D2" stroke-width="1.46915" stroke-linecap="round"/>
<path d="M21.353 14.2032C16.4404 16.4093 21.3074 22.179 24.1172 24.349L25.9914 24.1872C27.6229 21.2141 26.7703 11.7704 21.353 14.2032Z" fill="white" stroke="#2D83D2" stroke-width="1.46915"/>
<path d="M25.0291 23.9561C24.9494 22.1712 22.4889 15.748 21.4824 14.6924" stroke="#2D83D2" stroke-width="1.46915" stroke-linecap="round"/>
<path d="M13.3005 22.6301C12.0015 27.6011 19.6178 27.4993 23.0465 26.579L24.0534 24.9899C22.677 21.8906 15.0023 16.1173 13.3005 22.6301Z" fill="white" stroke="#2D83D2" stroke-width="1.46915"/>
<path d="M23.2857 25.6166C21.9231 25.6192 15.7906 22.988 14.1108 21.5757" stroke="#2D83D2" stroke-width="1.46915" stroke-linecap="round"/>
<circle cx="25.9024" cy="27.1702" r="3.02762" transform="rotate(-49.9352 25.9024 27.1702)" fill="#FEFEFE" stroke="#2D83D2" stroke-width="1.46915"/>
<g clip-path="url(#clip0_1536_22609)">
<path d="M42.3132 34.4191C43.8588 27.3343 34.7624 26.7815 30.021 27.3906L28.3905 29.3293C29.6678 33.7135 40.3813 43.275 42.3132 34.4191Z" fill="#FEFEFE" stroke="#2D83D2" stroke-width="1.46915"/>
<path d="M29.5304 28.6327C32.215 28.5725 41.5977 34.0733 41.7268 35.7497" stroke="#2D83D2" stroke-width="1.46915" stroke-linecap="round"/>
<path d="M41.7272 18.1548C38.1168 11.8661 31.2818 20.6533 29.3451 25.0238L30.1578 27.423C34.5692 28.6031 45.6708 25.024 41.7272 18.1548Z" fill="#FEFEFE" stroke="#2D83D2" stroke-width="1.46915"/>
<path d="M30.1523 26.0873C33.0859 25.6341 41.2275 19.1949 41.4238 17.7764" stroke="#2D83D2" stroke-width="1.46915" stroke-linecap="round"/>
<path d="M33.5815 43.8627C39.3237 41.1245 32.587 33.1688 28.5347 30.6328L26.0446 31.0977C24.2518 35.2976 25.3999 47.7641 33.5815 43.8627Z" fill="#FEFEFE" stroke="#2D83D2" stroke-width="1.46915"/>
<path d="M27.3668 31.2805C28.9906 31.7522 32.3926 41.8416 31.7878 43.7903" stroke="#2D83D2" stroke-width="1.46915" stroke-linecap="round"/>
<path d="M19.9376 44.1751C27.174 44.6418 26.3579 35.5652 25.0452 30.9686L22.8842 29.647C18.7409 31.5667 10.8922 43.5917 19.9376 44.1751Z" fill="#FEFEFE" stroke="#2D83D2" stroke-width="1.46915"/>
<path d="M23.3597 30.2017C23.5198 31.8091 20.8361 41.4596 19.0553 43.2108" stroke="#2D83D2" stroke-width="1.46915" stroke-linecap="round"/>
<path d="M32.918 10.26C25.7639 9.07603 25.6734 18.1888 26.5224 22.8932L28.5413 24.4231C32.855 22.9249 41.8605 11.74 32.918 10.26Z" fill="#FEFEFE" stroke="#2D83D2" stroke-width="1.46915"/>
<path d="M27.7893 23.3222C30.5251 20.5224 33.6022 10.9896 32.6391 10.6868" stroke="#2D83D2" stroke-width="1.46915" stroke-linecap="round"/>
<path d="M18.8762 9.64416C12.7736 13.561 18.8148 20.3841 22.5982 23.306L25.122 23.0881C27.3188 19.0848 26.5043 4.74813 18.8762 9.64416Z" fill="#FEFEFE" stroke="#2D83D2" stroke-width="1.46915"/>
<circle cx="25.8507" cy="27.1053" r="4.33139" transform="rotate(-49.9352 25.8507 27.1053)" fill="#FEFEFE" stroke="#2D83D2" stroke-width="1.46915"/>
</g>
<rect x="1.29878" y="3.58223" width="24.8566" height="47.7855" rx="6.05918" stroke="#2D83D2" stroke-width="1.46915"/>
<line x1="0.564209" y1="9.75566" x2="26.0408" y2="9.75566" stroke="#2D83D2" stroke-width="1.46915"/>
<line x1="0.564209" y1="43.7254" x2="26.0408" y2="43.7254" stroke="#2D83D2" stroke-width="1.46915"/>
<line x1="11.916" y1="47.5232" x2="15.5421" y2="47.5232" stroke="#2D83D2" stroke-width="1.46915" stroke-linecap="round"/>
<circle cx="26.5067" cy="27.0516" r="4.08458" fill="white" stroke="#2D83D2" stroke-width="1.46915"/>
<defs>
<clipPath id="clip0_1536_22609">
<rect width="27.175" height="54.35" fill="white" transform="translate(26.041 0.300781)"/>
</clipPath>
</defs>
</svg>
