<svg width="51" height="51" viewBox="0 0 51 51" fill="none" xmlns="http://www.w3.org/2000/svg">
<path d="M4.95188 20.0486H45.9128V41.6695C45.9128 45.216 43.0378 48.0909 39.4914 48.0909H11.3733C7.82685 48.0909 4.95188 45.216 4.95188 41.6695V20.0486Z" fill="#FEFEFE" stroke="#2D83D2" stroke-width="1.45064"/>
<rect x="0.725319" y="-0.725319" width="46.3884" height="5.98881" rx="1.65692" transform="matrix(1 0 0 -1 1.50977 19.2847)" fill="#FEFEFE" stroke="#2D83D2" stroke-width="1.45064"/>
<path d="M25.7422 13.2951L42.8878 9.94043" stroke="#2D83D2" stroke-width="1.45064" stroke-linecap="round"/>
<path d="M25.1211 13.2951L7.97548 9.94043" stroke="#2D83D2" stroke-width="1.45064" stroke-linecap="round"/>
<path d="M25.1211 12.922C26.9437 8.32524 31.6573 -0.0979588 35.9307 2.98297C41.2726 6.83414 28.4751 12.922 25.1211 12.922Z" stroke="#2D83D2" stroke-width="1.45064" stroke-linecap="round"/>
<path d="M25.1211 12.922C23.2985 8.32524 18.5849 -0.0979588 14.3114 2.98297C8.9696 6.83414 21.767 12.922 25.1211 12.922Z" stroke="#2D83D2" stroke-width="1.45064" stroke-linecap="round"/>
<line x1="4.22656" y1="31.4153" x2="46.6381" y2="31.4153" stroke="#2D83D2" stroke-width="1.45064"/>
<line x1="27.4773" y1="20.4756" x2="27.4773" y2="48.5684" stroke="#2D83D2" stroke-width="1.45064"/>
<line x1="4.22656" y1="36.177" x2="46.6381" y2="36.177" stroke="#2D83D2" stroke-width="1.45064"/>
<line x1="22.7157" y1="20.4756" x2="22.7157" y2="48.5684" stroke="#2D83D2" stroke-width="1.45064"/>
<mask id="path-11-inside-1_1536_22702" fill="white">
<path fill-rule="evenodd" clip-rule="evenodd" d="M17.6229 27.5187C15.7716 29.37 15.5891 32.3352 17.301 34.3162C20.237 37.7139 22.2489 39.4512 25.1119 41.51L25.1788 41.4431C28.0069 39.4049 30.0104 37.6683 32.9238 34.2968C34.6357 32.3158 34.4532 29.3506 32.6019 27.4993C30.5939 25.4913 27.3383 25.4913 25.3303 27.4993L25.1027 27.7269L24.8945 27.5187C22.8865 25.5107 19.6309 25.5107 17.6229 27.5187Z"/>
</mask>
<path fill-rule="evenodd" clip-rule="evenodd" d="M17.6229 27.5187C15.7716 29.37 15.5891 32.3352 17.301 34.3162C20.237 37.7139 22.2489 39.4512 25.1119 41.51L25.1788 41.4431C28.0069 39.4049 30.0104 37.6683 32.9238 34.2968C34.6357 32.3158 34.4532 29.3506 32.6019 27.4993C30.5939 25.4913 27.3383 25.4913 25.3303 27.4993L25.1027 27.7269L24.8945 27.5187C22.8865 25.5107 19.6309 25.5107 17.6229 27.5187Z" fill="#FEFEFE"/>
<path d="M17.301 34.3162L16.2034 35.2647L17.301 34.3162ZM25.1119 41.51L24.265 42.6877L25.2659 43.4075L26.1377 42.5358L25.1119 41.51ZM25.1788 41.4431L24.3306 40.2663L24.2357 40.3347L24.153 40.4174L25.1788 41.4431ZM32.9238 34.2968L31.8262 33.3483L32.9238 34.2968ZM25.1027 27.7269L24.0769 28.7527L25.1027 29.7784L26.1284 28.7527L25.1027 27.7269ZM24.8945 27.5187L25.9202 26.4929L24.8945 27.5187ZM18.3986 33.3677C17.2099 31.9922 17.3062 29.8869 18.6487 28.5444L16.5972 26.4929C14.237 28.8531 13.9683 32.6782 16.2034 35.2647L18.3986 33.3677ZM25.9588 40.3323C23.1834 38.3364 21.2566 36.6752 18.3986 33.3677L16.2034 35.2647C19.2173 38.7526 21.3144 40.5659 24.265 42.6877L25.9588 40.3323ZM24.153 40.4174L24.0862 40.4842L26.1377 42.5358L26.2045 42.4689L24.153 40.4174ZM26.0269 42.62C28.943 40.5183 31.0311 38.7058 34.0214 35.2453L31.8262 33.3483C28.9897 36.6308 27.0707 38.2915 24.3306 40.2663L26.0269 42.62ZM34.0214 35.2453C36.2565 32.6588 35.9878 28.8337 33.6276 26.4735L31.5761 28.525C32.9186 29.8675 33.0149 31.9727 31.8262 33.3483L34.0214 35.2453ZM33.6276 26.4735C31.0532 23.899 26.8791 23.899 24.3046 26.4735L26.3561 28.525C27.7976 27.0835 30.1347 27.0835 31.5761 28.525L33.6276 26.4735ZM24.3046 26.4735L24.0769 26.7012L26.1284 28.7527L26.3561 28.525L24.3046 26.4735ZM23.8687 28.5444L24.0769 28.7527L26.1284 26.7012L25.9202 26.4929L23.8687 28.5444ZM18.6487 28.5444C20.0901 27.103 22.4272 27.103 23.8687 28.5444L25.9202 26.4929C23.3457 23.9184 19.1716 23.9184 16.5972 26.4929L18.6487 28.5444Z" fill="#2D83D2" mask="url(#path-11-inside-1_1536_22702)"/>
</svg>
