<svg width="83" height="454" viewBox="0 0 83 454" fill="none" xmlns="http://www.w3.org/2000/svg">
<g opacity="0.45" clip-path="url(#clip0_1707_35867)">
<path d="M39.9307 422.508C39.9307 427.601 35.7093 431.749 30.4794 431.749C25.2496 431.749 21.0283 427.601 21.0283 422.508C21.0283 417.414 25.2497 413.266 30.4794 413.266L37.5874 413.266C38.8917 413.266 39.9307 414.299 39.9307 415.55L39.9307 422.508Z" stroke="black" stroke-opacity="0.5"/>
<path d="M9.43841 431.749C4.20861 431.749 -0.0126958 427.602 -0.0126957 422.508L-0.0126957 415.55C-0.0126957 414.299 1.02628 413.267 2.33048 413.267L9.43841 413.267C14.6682 413.267 18.8895 417.414 18.8895 422.508C18.8895 427.602 14.6682 431.749 9.43841 431.749Z" stroke="black" stroke-opacity="0.5"/>
<path d="M42.0459 432.806C42.0459 422.025 50.9769 413.267 62.0168 413.267L76.6385 413.267C79.6028 413.267 81.9876 415.617 81.9876 418.492L81.9876 432.806C81.9876 443.587 73.0562 452.345 62.0168 452.345C50.9769 452.345 42.0459 443.587 42.0459 432.806Z" stroke="black" stroke-opacity="0.5"/>
<path d="M39.9328 473.975C39.9328 484.756 31.0018 493.514 19.9621 493.514L5.34003 493.514C2.37586 493.514 -0.00878919 491.164 -0.00878931 488.288L-0.00878994 473.975C-0.00879041 463.194 8.92235 454.436 19.9621 454.436C31.0018 454.436 39.9328 463.194 39.9328 473.975Z" stroke="black" stroke-opacity="0.5"/>
<path d="M62.0168 454.436C73.0562 454.436 81.9876 463.194 81.9876 473.975L81.9876 488.288C81.9876 491.164 79.6028 493.514 76.6385 493.514L62.0168 493.514C50.9769 493.514 42.0459 484.756 42.0459 473.975C42.0459 463.194 50.9769 454.436 62.0168 454.436Z" stroke="black" stroke-opacity="0.5"/>
<path d="M30.4794 433.862C35.7092 433.862 39.9307 438.01 39.9307 443.103L39.9307 450.062C39.9307 451.313 38.8917 452.345 37.5875 452.345L30.4794 452.345C25.2496 452.345 21.0283 448.197 21.0283 443.103C21.0283 438.01 25.2496 433.862 30.4794 433.862Z" stroke="black" stroke-opacity="0.5"/>
<path d="M-0.0126954 443.104C-0.0126954 438.01 4.2086 433.863 9.4384 433.863C14.6682 433.863 18.8896 438.01 18.8896 443.104C18.8896 448.197 14.6682 452.345 9.43844 452.345L2.33048 452.345C1.02628 452.345 -0.0126954 451.313 -0.0126954 450.061L-0.0126954 443.104Z" stroke="black" stroke-opacity="0.5"/>
<path d="M42.0459 401.93C42.0459 396.836 46.2671 392.689 51.497 392.689C56.7268 392.689 60.948 396.836 60.948 401.93C60.948 407.024 56.7268 411.171 51.497 411.171L44.3891 411.171C43.0848 411.171 42.0459 410.139 42.0459 408.888L42.0459 401.93Z" stroke="black" stroke-opacity="0.5"/>
<path d="M72.537 392.689C77.7668 392.689 81.9881 396.836 81.9881 401.93L81.9881 408.888C81.9881 410.139 80.9491 411.171 79.6449 411.171L72.537 411.171C67.3072 411.171 63.0859 407.024 63.0859 401.93C63.0859 396.836 67.3072 392.689 72.537 392.689Z" stroke="black" stroke-opacity="0.5"/>
<path d="M39.929 391.632C39.929 402.413 30.9979 411.171 19.9582 411.171L5.33613 411.171C2.37193 411.171 -0.0126956 408.822 -0.0126956 405.946L-0.0126954 391.632C-0.0126952 380.851 8.91845 372.093 19.9582 372.093C30.9979 372.093 39.929 380.851 39.929 391.632Z" stroke="black" stroke-opacity="0.5"/>
<path d="M42.042 350.463C42.042 339.682 50.9734 330.924 62.0129 330.924L76.635 330.924C79.5992 330.924 81.9837 333.274 81.9837 336.149L81.9837 350.463C81.9837 361.244 73.0527 370.002 62.0129 370.002C50.9734 370.002 42.042 361.244 42.042 350.463Z" stroke="black" stroke-opacity="0.5"/>
<path d="M19.9582 370.002C8.91845 370.002 -0.0126938 361.244 -0.0126951 350.463L-0.0126968 336.149C-0.0126971 333.274 2.37194 330.924 5.33614 330.924L19.9582 330.924C30.9979 330.924 39.929 339.682 39.929 350.463C39.929 361.244 30.9979 370.002 19.9582 370.002Z" stroke="black" stroke-opacity="0.5"/>
<path d="M51.497 390.576C46.2671 390.576 42.0459 386.429 42.0459 381.335L42.0459 374.377C42.0459 373.126 43.0848 372.094 44.3891 372.094L51.497 372.094C56.7268 372.094 60.948 376.241 60.948 381.335C60.948 386.429 56.7268 390.576 51.497 390.576Z" stroke="black" stroke-opacity="0.5"/>
<path d="M81.9881 381.335C81.9881 386.429 77.7668 390.576 72.537 390.576C67.3072 390.576 63.0859 386.429 63.0859 381.335C63.0859 376.241 67.3072 372.094 72.537 372.094L79.6449 372.094C80.9491 372.094 81.9881 373.126 81.9881 374.377L81.9881 381.335Z" stroke="black" stroke-opacity="0.5"/>
<path d="M39.9305 257.111C39.9305 262.202 35.7093 266.35 30.4794 266.35C25.2495 266.35 21.0283 262.202 21.0283 257.111C21.0283 252.015 25.2496 247.868 30.4794 247.868L37.5873 247.868C38.8915 247.868 39.9305 248.9 39.9305 250.152L39.9305 257.111Z" stroke="black" stroke-opacity="0.5"/>
<path d="M9.43843 266.35C4.20851 266.35 -0.0126958 262.202 -0.0126957 257.111L-0.0126957 250.152C-0.0126957 248.9 1.02632 247.868 2.33048 247.868L9.43842 247.868C14.6682 247.868 18.8895 252.015 18.8895 257.111C18.8895 262.202 14.6683 266.35 9.43843 266.35Z" stroke="black" stroke-opacity="0.5"/>
<path d="M42.0459 267.409C42.0459 256.627 50.9769 247.87 62.0168 247.87L76.6389 247.87C79.6028 247.87 81.9876 250.222 81.9876 253.094L81.9876 267.409C81.9876 278.192 73.0566 286.948 62.0168 286.948C50.9769 286.948 42.0459 278.192 42.0459 267.409Z" stroke="black" stroke-opacity="0.5"/>
<path d="M39.933 308.578C39.933 319.359 31.0018 328.117 19.9621 328.117L5.34004 328.117C2.37586 328.117 -0.00878919 325.768 -0.00878931 322.892L-0.00878994 308.578C-0.00879041 297.797 8.92236 289.039 19.9621 289.039C31.0018 289.039 39.933 297.797 39.933 308.578Z" stroke="black" stroke-opacity="0.5"/>
<path d="M62.0168 289.039C73.0566 289.039 81.9876 297.797 81.9876 308.578L81.9876 322.892C81.9876 325.768 79.6028 328.117 76.6389 328.117L62.0168 328.117C50.9769 328.117 42.0459 319.359 42.0459 308.578C42.0459 297.797 50.9769 289.039 62.0168 289.039Z" stroke="black" stroke-opacity="0.5"/>
<path d="M30.4794 268.467C35.7093 268.467 39.9306 272.614 39.9306 277.706L39.9306 284.665C39.9306 285.916 38.8916 286.948 37.5874 286.948L30.4794 286.948C25.2496 286.948 21.0283 282.801 21.0283 277.706C21.0283 272.614 25.2495 268.467 30.4794 268.467Z" stroke="black" stroke-opacity="0.5"/>
<path d="M-0.0126954 277.706C-0.0126954 272.614 4.20854 268.467 9.43841 268.467C14.6683 268.467 18.8895 272.614 18.8895 277.706C18.8895 282.801 14.6682 286.948 9.43842 286.948L2.33049 286.948C1.02632 286.948 -0.0126954 285.916 -0.0126954 284.665L-0.0126954 277.706Z" stroke="black" stroke-opacity="0.5"/>
<path d="M42.0459 236.518C42.0459 231.427 46.2671 227.279 51.497 227.279C56.7269 227.279 60.948 231.427 60.948 236.518C60.948 241.613 56.7268 245.761 51.497 245.761L44.3891 245.761C43.0849 245.761 42.0459 244.729 42.0459 243.477L42.0459 236.518Z" stroke="black" stroke-opacity="0.5"/>
<path d="M72.537 227.279C77.7669 227.279 81.9881 231.427 81.9881 236.518L81.9881 243.477C81.9881 244.729 80.9491 245.761 79.6449 245.761L72.537 245.761C67.3072 245.761 63.0859 241.613 63.0859 236.518C63.0859 231.427 67.3071 227.279 72.537 227.279Z" stroke="black" stroke-opacity="0.5"/>
<path d="M39.929 226.222C39.929 237.001 30.9979 245.761 19.9582 245.761L5.33613 245.761C2.37216 245.761 -0.0126954 243.41 -0.0126956 240.533L-0.0126962 226.222C-0.0126967 215.439 8.91842 206.683 19.9582 206.683C30.9979 206.683 39.929 215.439 39.929 226.222Z" stroke="black" stroke-opacity="0.5"/>
<path d="M42.042 185.049C42.042 174.266 50.9734 165.51 62.0129 165.51L76.635 165.51C79.5995 165.51 81.9837 167.858 81.9837 170.734L81.9837 185.049C81.9837 195.828 73.0527 204.588 62.0129 204.588C50.9734 204.588 42.042 195.828 42.042 185.049Z" stroke="black" stroke-opacity="0.5"/>
<path d="M19.9582 204.588C8.91848 204.588 -0.0126924 195.828 -0.0126943 185.049L-0.0126968 170.734C-0.0126973 167.858 2.37174 165.51 5.33613 165.51L19.9582 165.51C30.9979 165.51 39.929 174.266 39.929 185.049C39.929 195.828 30.9979 204.588 19.9582 204.588Z" stroke="black" stroke-opacity="0.5"/>
<path d="M51.497 225.166C46.2672 225.166 42.0459 221.019 42.0459 215.923L42.0459 208.968C42.0459 207.717 43.0849 206.685 44.3891 206.685L51.497 206.685C56.7269 206.685 60.948 210.832 60.948 215.923C60.948 221.019 56.7268 225.166 51.497 225.166Z" stroke="black" stroke-opacity="0.5"/>
<path d="M81.9881 215.923C81.9881 221.019 77.7668 225.166 72.537 225.166C67.3072 225.166 63.0859 221.019 63.0859 215.923C63.0859 210.832 67.3071 206.685 72.537 206.685L79.6449 206.685C80.9491 206.685 81.9881 207.717 81.9881 208.968L81.9881 215.923Z" stroke="black" stroke-opacity="0.5"/>
<path d="M39.9307 92.4107C39.9307 97.506 35.7092 101.653 30.4794 101.653C25.2497 101.653 21.0283 97.506 21.0283 92.4107C21.0283 87.3192 25.2496 83.1718 30.4794 83.1718L37.5874 83.1718C38.8917 83.1718 39.9307 84.204 39.9307 85.4554L39.9307 92.4107Z" stroke="black" stroke-opacity="0.5"/>
<path d="M9.43841 101.653C4.20866 101.653 -0.0126958 97.506 -0.0126957 92.4107L-0.0126957 85.4554C-0.0126957 84.204 1.02632 83.1718 2.33048 83.1718L9.43841 83.1718C14.6683 83.1718 18.8895 87.3192 18.8895 92.4107C18.8895 97.506 14.6682 101.653 9.43841 101.653Z" stroke="black" stroke-opacity="0.5"/>
<path d="M42.0459 102.71C42.0459 91.9275 50.9769 83.1712 62.0168 83.1712L76.6385 83.1712C79.603 83.1712 81.9876 85.5189 81.9876 88.3951L81.9876 102.71C81.9876 113.489 73.0562 122.249 62.0168 122.249C50.977 122.249 42.0459 113.489 42.0459 102.71Z" stroke="black" stroke-opacity="0.5"/>
<path d="M39.9328 143.879C39.9328 154.658 31.0018 163.418 19.9621 163.418L5.34003 163.418C2.37607 163.418 -0.00878919 161.067 -0.00878931 158.19L-0.00878994 143.879C-0.00879041 133.096 8.92232 124.34 19.9621 124.34C31.0018 124.34 39.9328 133.096 39.9328 143.879Z" stroke="black" stroke-opacity="0.5"/>
<path d="M62.0168 124.34C73.0562 124.34 81.9876 133.096 81.9876 143.879L81.9876 158.19C81.9876 161.067 79.6026 163.418 76.6385 163.418L62.0168 163.418C50.977 163.418 42.0459 154.658 42.0459 143.879C42.0459 133.096 50.9769 124.34 62.0168 124.34Z" stroke="black" stroke-opacity="0.5"/>
<path d="M30.4794 103.768C35.7093 103.768 39.9307 107.915 39.9307 113.006L39.9307 119.965C39.9307 121.217 38.8917 122.249 37.5875 122.249L30.4794 122.249C25.2496 122.249 21.0283 118.102 21.0283 113.006C21.0283 107.915 25.2496 103.768 30.4794 103.768Z" stroke="black" stroke-opacity="0.5"/>
<path d="M-0.0126954 113.006C-0.0126954 107.915 4.20853 103.768 9.4384 103.768C14.6683 103.768 18.8896 107.915 18.8896 113.006C18.8896 118.102 14.6682 122.249 9.43844 122.249L2.33048 122.249C1.02632 122.249 -0.0126954 121.217 -0.0126954 119.965L-0.0126954 113.006Z" stroke="black" stroke-opacity="0.5"/>
<path d="M42.0459 71.8366C42.0459 66.7413 46.2672 62.594 51.497 62.594C56.7268 62.594 60.948 66.7413 60.948 71.8366C60.948 76.9318 56.7268 81.0791 51.497 81.0791L44.3891 81.0791C43.0849 81.0791 42.0459 80.0469 42.0459 78.7955L42.0459 71.8366Z" stroke="black" stroke-opacity="0.5"/>
<path d="M72.537 62.594C77.7668 62.594 81.9881 66.7413 81.9881 71.8366L81.9881 78.7955C81.9881 80.0469 80.9491 81.0791 79.6449 81.0791L72.537 81.0791C67.3072 81.0791 63.0859 76.9318 63.0859 71.8366C63.0859 66.7413 67.3072 62.594 72.537 62.594Z" stroke="black" stroke-opacity="0.5"/>
<path d="M39.929 61.5402C39.929 72.3192 30.9978 81.0791 19.9582 81.0791L5.33613 81.0791C2.37216 81.0791 -0.0126956 78.7282 -0.0126956 75.8516L-0.0126954 61.5402C-0.0126952 50.7576 8.91842 42.0013 19.9582 42.0013C30.9979 42.0013 39.929 50.7576 39.929 61.5402Z" stroke="black" stroke-opacity="0.5"/>
<path d="M42.042 20.3673C42.042 9.58475 50.9734 0.828434 62.0129 0.828433L76.635 0.828432C79.5995 0.828432 81.9837 3.17612 81.9837 6.0523L81.9837 20.3673C81.9837 31.1464 73.0527 39.9062 62.0129 39.9062C50.9734 39.9062 42.042 31.1464 42.042 20.3673Z" stroke="black" stroke-opacity="0.5"/>
<path d="M19.9582 39.9062C8.91849 39.9062 -0.0126938 31.1464 -0.0126951 20.3673L-0.0126968 6.0523C-0.0126971 3.17614 2.37174 0.828434 5.33614 0.828434L19.9582 0.828433C30.9979 0.828433 39.929 9.58474 39.929 20.3673C39.929 31.1464 30.9978 39.9062 19.9582 39.9062Z" stroke="black" stroke-opacity="0.5"/>
<path d="M51.497 60.4805C46.2672 60.4805 42.0459 56.3331 42.0459 51.2379L42.0459 44.2789C42.0459 43.0315 43.0845 41.999 44.3891 41.999L51.497 41.999C56.7269 41.999 60.948 46.1464 60.948 51.2379C60.948 56.3331 56.7268 60.4805 51.497 60.4805Z" stroke="black" stroke-opacity="0.5"/>
<path d="M81.9881 51.2379C81.9881 56.3331 77.7668 60.4805 72.537 60.4805C67.3072 60.4805 63.0859 56.3331 63.0859 51.2379C63.0859 46.1464 67.3071 41.999 72.537 41.999L79.6449 41.999C80.9495 41.999 81.9881 43.0316 81.9881 44.2789L81.9881 51.2379Z" stroke="black" stroke-opacity="0.5"/>
</g>
<defs>
<clipPath id="clip0_1707_35867">
<rect width="454" height="83" fill="white" transform="translate(0 454) rotate(-90)"/>
</clipPath>
</defs>
</svg>
