<svg width="1300" height="81" viewBox="0 0 1300 81" fill="none" xmlns="http://www.w3.org/2000/svg">
<g opacity="0.45" clip-path="url(#clip0_1707_39296)">
<path d="M578.65 41.5451C583.665 41.5451 587.741 45.6633 587.741 50.7564C587.741 55.8496 583.665 59.9678 578.65 59.9678C573.635 59.9678 569.559 55.8496 569.559 50.7565L569.559 43.8198C569.559 42.5576 570.568 41.5451 571.799 41.5451L578.65 41.5451Z" stroke="black" stroke-opacity="0.5"/>
<path d="M587.741 71.2877C587.741 76.3809 583.665 80.499 578.65 80.499L571.799 80.499C570.568 80.499 569.559 79.4865 569.559 78.2244L569.559 71.2877C569.559 66.1945 573.635 62.0764 578.65 62.0764C583.665 62.0764 587.741 66.1945 587.741 71.2877Z" stroke="black" stroke-opacity="0.5"/>
<path d="M588.792 39.4551C578.177 39.4551 569.562 30.7407 569.562 19.9775L569.562 5.70768C569.562 2.82583 571.868 0.499904 574.699 0.499904L588.792 0.499903C599.407 0.499902 608.022 9.21429 608.022 19.9775C608.022 30.7407 599.407 39.4551 588.792 39.4551Z" stroke="black" stroke-opacity="0.5"/>
<path d="M629.327 41.5408C639.941 41.5408 648.557 50.2554 648.557 61.0185L648.557 75.2882C648.557 78.1703 646.251 80.4961 643.42 80.4961L629.327 80.4961C618.712 80.4961 610.097 71.7816 610.097 61.0185C610.097 50.2554 618.712 41.5408 629.327 41.5408Z" stroke="black" stroke-opacity="0.5"/>
<path d="M610.097 19.9775C610.097 9.2143 618.712 0.499903 629.327 0.499903L643.42 0.499901C646.251 0.499901 648.557 2.82582 648.557 5.70768L648.557 19.9775C648.557 30.7407 639.941 39.4551 629.327 39.4551C618.712 39.4551 610.097 30.7407 610.097 19.9775Z" stroke="black" stroke-opacity="0.5"/>
<path d="M589.84 50.7564C589.84 45.6633 593.916 41.5451 598.931 41.5451L605.782 41.5451C607.013 41.5451 608.022 42.5576 608.022 43.8198L608.022 50.7564C608.022 55.8496 603.946 59.9678 598.931 59.9678C593.916 59.9678 589.84 55.8496 589.84 50.7564Z" stroke="black" stroke-opacity="0.5"/>
<path d="M598.931 80.5C593.916 80.5 589.84 76.3818 589.84 71.2887C589.84 66.1955 593.916 62.0774 598.931 62.0774C603.946 62.0774 608.022 66.1955 608.022 71.2887L608.022 78.2253C608.022 79.4875 607.013 80.5 605.782 80.5L598.931 80.5Z" stroke="black" stroke-opacity="0.5"/>
<path d="M558.379 39.4551C553.364 39.4551 549.288 35.337 549.288 30.2438C549.288 25.1506 553.364 21.0325 558.379 21.0325C563.394 21.0325 567.47 25.1506 567.47 30.2438L567.47 37.1804C567.47 38.4426 566.461 39.4551 565.229 39.4551L558.379 39.4551Z" stroke="black" stroke-opacity="0.5"/>
<path d="M549.288 9.71156C549.288 4.61837 553.364 0.500276 558.379 0.500275L565.229 0.500275C566.461 0.500275 567.47 1.51276 567.47 2.77498L567.47 9.71156C567.47 14.8048 563.394 18.9229 558.379 18.9229C553.364 18.9229 549.288 14.8048 549.288 9.71156Z" stroke="black" stroke-opacity="0.5"/>
<path d="M548.24 41.5439C558.854 41.5439 567.47 50.2583 567.47 61.0214L567.47 75.2911C567.47 78.1733 565.164 80.499 562.333 80.499L548.24 80.499C537.625 80.499 529.01 71.7845 529.01 61.0214C529.01 50.2583 537.625 41.5439 548.24 41.5439Z" stroke="black" stroke-opacity="0.5"/>
<path d="M507.702 39.458C497.087 39.458 488.472 30.7433 488.472 19.9804L488.472 5.71061C488.472 2.82841 490.778 0.502834 493.609 0.502833L507.702 0.502832C518.316 0.502831 526.932 9.21722 526.932 19.9804C526.932 30.7433 518.316 39.458 507.702 39.458Z" stroke="black" stroke-opacity="0.5"/>
<path d="M526.932 61.0214C526.932 71.7845 518.316 80.499 507.702 80.499L493.609 80.499C490.778 80.499 488.472 78.1733 488.472 75.2911L488.472 61.0214C488.472 50.2584 497.087 41.5439 507.702 41.5439C518.316 41.5439 526.932 50.2583 526.932 61.0214Z" stroke="black" stroke-opacity="0.5"/>
<path d="M547.192 30.2438C547.192 35.337 543.116 39.4551 538.101 39.4551L531.25 39.4551C530.019 39.4551 529.01 38.4425 529.01 37.1804L529.01 30.2438C529.01 25.1506 533.086 21.0325 538.101 21.0325C543.116 21.0325 547.192 25.1506 547.192 30.2438Z" stroke="black" stroke-opacity="0.5"/>
<path d="M538.101 0.500275C543.116 0.500275 547.192 4.61837 547.192 9.71157C547.192 14.8048 543.116 18.9229 538.101 18.9229C533.086 18.9229 529.01 14.8048 529.01 9.71157L529.01 2.77498C529.01 1.51276 530.019 0.500276 531.25 0.500276L538.101 0.500275Z" stroke="black" stroke-opacity="0.5"/>
<path d="M416.493 41.545C421.508 41.545 425.584 45.6633 425.584 50.7564C425.584 55.8496 421.508 59.9678 416.493 59.9678C411.478 59.9678 407.402 55.8496 407.402 50.7564L407.402 43.8197C407.402 42.5575 408.411 41.545 409.642 41.545L416.493 41.545Z" stroke="black" stroke-opacity="0.5"/>
<path d="M425.584 71.2877C425.584 76.3809 421.508 80.499 416.493 80.499L409.643 80.499C408.411 80.499 407.402 79.4865 407.402 78.2244L407.402 71.2877C407.402 66.1945 411.478 62.0764 416.493 62.0764C421.508 62.0764 425.584 66.1945 425.584 71.2877Z" stroke="black" stroke-opacity="0.5"/>
<path d="M426.632 39.4551C416.017 39.4551 407.402 30.7407 407.402 19.9775L407.402 5.70805C407.402 2.82581 409.708 0.499904 412.539 0.499904L426.632 0.499903C437.247 0.499902 445.862 9.21465 445.862 19.9775C445.862 30.7407 437.247 39.4551 426.632 39.4551Z" stroke="black" stroke-opacity="0.5"/>
<path d="M467.167 41.5411C477.781 41.5411 486.397 50.2554 486.397 61.0185L486.397 75.2882C486.397 78.1703 484.091 80.4961 481.26 80.4961L467.167 80.4961C456.552 80.4961 447.937 71.7816 447.937 61.0185C447.937 50.2554 456.552 41.5411 467.167 41.5411Z" stroke="black" stroke-opacity="0.5"/>
<path d="M447.937 19.9775C447.937 9.21465 456.552 0.499903 467.167 0.499903L481.26 0.499901C484.091 0.499901 486.397 2.82581 486.397 5.70805L486.397 19.9775C486.397 30.7407 477.781 39.4551 467.167 39.4551C456.552 39.4551 447.937 30.7407 447.937 19.9775Z" stroke="black" stroke-opacity="0.5"/>
<path d="M427.68 50.7565C427.68 45.6633 431.756 41.545 436.771 41.545L443.622 41.545C444.853 41.545 445.862 42.5575 445.862 43.8197L445.862 50.7564C445.862 55.8496 441.786 59.9678 436.771 59.9678C431.756 59.9678 427.68 55.8496 427.68 50.7565Z" stroke="black" stroke-opacity="0.5"/>
<path d="M436.771 80.499C431.756 80.499 427.68 76.3809 427.68 71.2877C427.68 66.1945 431.756 62.0763 436.771 62.0763C441.786 62.0763 445.862 66.1945 445.862 71.2877L445.862 78.2244C445.862 79.4865 444.853 80.499 443.621 80.499L436.771 80.499Z" stroke="black" stroke-opacity="0.5"/>
<path d="M396.233 39.4551C391.218 39.4551 387.142 35.337 387.142 30.2438C387.142 25.1506 391.218 21.0325 396.233 21.0325C401.248 21.0325 405.324 25.1506 405.324 30.2438L405.324 37.1804C405.324 38.4426 404.315 39.4551 403.083 39.4551L396.233 39.4551Z" stroke="black" stroke-opacity="0.5"/>
<path d="M387.142 9.71156C387.142 4.61837 391.218 0.500276 396.233 0.500275L403.083 0.500275C404.315 0.500275 405.324 1.51276 405.324 2.77498L405.324 9.71156C405.324 14.8048 401.248 18.9229 396.233 18.9229C391.218 18.9229 387.142 14.8048 387.142 9.71156Z" stroke="black" stroke-opacity="0.5"/>
<path d="M386.094 41.5438C396.708 41.5438 405.324 50.2584 405.324 61.0214L405.324 75.2911C405.324 78.1733 403.018 80.499 400.187 80.499L386.094 80.499C375.479 80.499 366.864 71.7845 366.864 61.0214C366.864 50.2584 375.479 41.5438 386.094 41.5438Z" stroke="black" stroke-opacity="0.5"/>
<path d="M345.559 39.458C334.944 39.458 326.329 30.7433 326.329 19.9804L326.329 5.71061C326.329 2.82841 328.635 0.502834 331.466 0.502833L345.559 0.502832C356.174 0.502831 364.789 9.21722 364.789 19.9804C364.789 30.7433 356.174 39.458 345.559 39.458Z" stroke="black" stroke-opacity="0.5"/>
<path d="M364.789 61.0214C364.789 71.7845 356.174 80.499 345.559 80.499L331.466 80.499C328.635 80.499 326.329 78.1733 326.329 75.2911L326.329 61.0214C326.329 50.2584 334.944 41.5438 345.559 41.5438C356.174 41.5438 364.789 50.2584 364.789 61.0214Z" stroke="black" stroke-opacity="0.5"/>
<path d="M385.046 30.2438C385.046 35.337 380.97 39.4551 375.955 39.4551L369.104 39.4551C367.873 39.4551 366.864 38.4426 366.864 37.1804L366.864 30.2438C366.864 25.1506 370.94 21.0325 375.955 21.0325C380.97 21.0325 385.046 25.1506 385.046 30.2438Z" stroke="black" stroke-opacity="0.5"/>
<path d="M375.955 0.500275C380.97 0.500275 385.046 4.61837 385.046 9.71157C385.046 14.8048 380.97 18.9229 375.955 18.9229C370.94 18.9229 366.864 14.8048 366.864 9.71157L366.864 2.77498C366.864 1.51276 367.873 0.500276 369.104 0.500276L375.955 0.500275Z" stroke="black" stroke-opacity="0.5"/>
<path d="M253.646 41.5451C258.659 41.5451 262.735 45.6632 262.735 50.7564C262.735 55.8497 258.659 59.9678 253.646 59.9678C248.63 59.9678 244.554 55.8496 244.554 50.7565L244.554 43.8198C244.554 42.5577 245.563 41.5451 246.794 41.5451L253.646 41.5451Z" stroke="black" stroke-opacity="0.5"/>
<path d="M262.735 71.2877C262.735 76.381 258.659 80.499 253.646 80.499L246.794 80.499C245.563 80.499 244.554 79.4865 244.554 78.2244L244.554 71.2877C244.554 66.1946 248.63 62.0764 253.646 62.0764C258.659 62.0764 262.735 66.1945 262.735 71.2877Z" stroke="black" stroke-opacity="0.5"/>
<path d="M263.786 39.4551C253.17 39.4551 244.556 30.7407 244.556 19.9775L244.556 5.70768C244.556 2.82582 246.864 0.499904 249.692 0.499904L263.786 0.499903C274.402 0.499902 283.016 9.21427 283.016 19.9775C283.016 30.7407 274.402 39.4551 263.786 39.4551Z" stroke="black" stroke-opacity="0.5"/>
<path d="M304.321 41.5408C314.936 41.5408 323.551 50.2554 323.551 61.0185L323.551 75.2882C323.551 78.1703 321.245 80.4961 318.414 80.4961L304.321 80.4961C293.706 80.4961 285.091 71.7816 285.091 61.0185C285.091 50.2554 293.706 41.5408 304.321 41.5408Z" stroke="black" stroke-opacity="0.5"/>
<path d="M285.091 19.9775C285.091 9.2143 293.706 0.499903 304.321 0.499903L318.414 0.499901C321.245 0.499901 323.551 2.82582 323.551 5.70768L323.551 19.9775C323.551 30.7407 314.936 39.4551 304.321 39.4551C293.706 39.4551 285.091 30.7407 285.091 19.9775Z" stroke="black" stroke-opacity="0.5"/>
<path d="M264.835 50.7564C264.835 45.6632 268.911 41.5451 273.924 41.5451L280.775 41.5451C282.007 41.5451 283.016 42.5576 283.016 43.8198L283.016 50.7564C283.016 55.8496 278.94 59.9678 273.924 59.9678C268.911 59.9678 264.835 55.8497 264.835 50.7564Z" stroke="black" stroke-opacity="0.5"/>
<path d="M273.924 80.5C268.911 80.5 264.835 76.3819 264.835 71.2887C264.835 66.1954 268.911 62.0774 273.924 62.0774C278.94 62.0774 283.016 66.1955 283.016 71.2887L283.016 78.2253C283.016 79.4874 282.007 80.5 280.775 80.5L273.924 80.5Z" stroke="black" stroke-opacity="0.5"/>
<path d="M233.372 39.4551C228.359 39.4551 224.283 35.3371 224.283 30.2438C224.283 25.1505 228.359 21.0325 233.372 21.0325C238.388 21.0325 242.464 25.1506 242.464 30.2438L242.464 37.1804C242.464 38.4425 241.455 39.4551 240.223 39.4551L233.372 39.4551Z" stroke="black" stroke-opacity="0.5"/>
<path d="M224.283 9.71156C224.283 4.61829 228.359 0.500276 233.372 0.500275L240.223 0.500275C241.455 0.500275 242.464 1.51281 242.464 2.77498L242.464 9.71156C242.464 14.8047 238.388 18.9229 233.372 18.9229C228.359 18.9229 224.283 14.8048 224.283 9.71156Z" stroke="black" stroke-opacity="0.5"/>
<path d="M223.234 41.5439C233.847 41.5439 242.464 50.2584 242.464 61.0214L242.464 75.2911C242.464 78.1731 240.157 80.499 237.325 80.499L223.234 80.499C212.618 80.499 204.004 71.7846 204.004 61.0214C204.004 50.2583 212.618 41.5439 223.234 41.5439Z" stroke="black" stroke-opacity="0.5"/>
<path d="M182.696 39.458C172.08 39.458 163.466 30.7433 163.466 19.9804L163.466 5.71061C163.466 2.82821 165.77 0.502834 168.602 0.502833L182.696 0.502832C193.308 0.502831 201.926 9.21726 201.926 19.9804C201.926 30.7432 193.308 39.458 182.696 39.458Z" stroke="black" stroke-opacity="0.5"/>
<path d="M201.926 61.0214C201.926 71.7845 193.308 80.499 182.696 80.499L168.602 80.499C165.77 80.499 163.466 78.1735 163.466 75.2911L163.466 61.0214C163.466 50.2584 172.08 41.5439 182.696 41.5439C193.308 41.5439 201.926 50.2584 201.926 61.0214Z" stroke="black" stroke-opacity="0.5"/>
<path d="M222.186 30.2438C222.186 35.3369 218.11 39.4551 213.094 39.4551L206.246 39.4551C205.014 39.4551 204.005 38.4425 204.005 37.1804L204.005 30.2438C204.005 25.1505 208.081 21.0325 213.094 21.0325C218.11 21.0325 222.186 25.1506 222.186 30.2438Z" stroke="black" stroke-opacity="0.5"/>
<path d="M213.094 0.500275C218.11 0.500275 222.186 4.61842 222.186 9.71157C222.186 14.8047 218.11 18.9229 213.094 18.9229C208.081 18.9229 204.005 14.8048 204.005 9.71157L204.005 2.77498C204.005 1.51281 205.014 0.500276 206.246 0.500276L213.094 0.500275Z" stroke="black" stroke-opacity="0.5"/>
<path d="M91.486 41.545C96.5024 41.545 100.578 45.6633 100.578 50.7564C100.578 55.8496 96.5024 59.9678 91.486 59.9678C86.4733 59.9678 82.3972 55.8497 82.3972 50.7564L82.3972 43.8197C82.3972 42.5575 83.4061 41.545 84.6379 41.545L91.486 41.545Z" stroke="black" stroke-opacity="0.5"/>
<path d="M100.578 71.2877C100.578 76.3808 96.5024 80.499 91.486 80.499L84.6379 80.499C83.4061 80.499 82.3972 79.4865 82.3972 78.2244L82.3972 71.2877C82.3972 66.1944 86.4733 62.0764 91.486 62.0764C96.5024 62.0764 100.578 66.1946 100.578 71.2877Z" stroke="black" stroke-opacity="0.5"/>
<path d="M101.626 39.4551C91.0102 39.4551 82.3963 30.7407 82.3963 19.9775L82.3963 5.70805C82.3963 2.82561 84.7004 0.499904 87.5319 0.499904L101.626 0.499903C112.239 0.499902 120.856 9.21469 120.856 19.9775C120.856 30.7406 112.239 39.4551 101.626 39.4551Z" stroke="black" stroke-opacity="0.5"/>
<path d="M142.161 41.5411C152.774 41.5411 161.391 50.2555 161.391 61.0185L161.391 75.2882C161.391 78.1701 159.084 80.4961 156.252 80.4961L142.161 80.4961C131.545 80.4961 122.931 71.7816 122.931 61.0185C122.931 50.2554 131.545 41.5411 142.161 41.5411Z" stroke="black" stroke-opacity="0.5"/>
<path d="M122.931 19.9775C122.931 9.21463 131.545 0.499903 142.161 0.499903L156.252 0.499901C159.084 0.499901 161.391 2.82602 161.391 5.70805L161.391 19.9775C161.391 30.7406 152.774 39.4551 142.161 39.4551C131.545 39.4551 122.931 30.7407 122.931 19.9775Z" stroke="black" stroke-opacity="0.5"/>
<path d="M102.675 50.7565C102.675 45.6632 106.751 41.545 111.764 41.545L118.616 41.545C119.847 41.545 120.856 42.5575 120.856 43.8197L120.856 50.7564C120.856 55.8496 116.78 59.9678 111.764 59.9678C106.751 59.9678 102.675 55.8497 102.675 50.7565Z" stroke="black" stroke-opacity="0.5"/>
<path d="M111.764 80.499C106.751 80.499 102.675 76.3809 102.675 71.2877C102.675 66.1944 106.751 62.0763 111.764 62.0763C116.78 62.0763 120.856 66.1946 120.856 71.2877L120.856 78.2244C120.856 79.4865 119.847 80.499 118.616 80.499L111.764 80.499Z" stroke="black" stroke-opacity="0.5"/>
<path d="M71.2292 39.4551C66.2128 39.4551 62.1369 35.3369 62.1369 30.2438C62.1369 25.1506 66.2128 21.0325 71.2292 21.0325C76.2456 21.0325 80.3215 25.1506 80.3215 30.2438L80.3215 37.1804C80.3215 38.4425 79.3127 39.4551 78.0809 39.4551L71.2292 39.4551Z" stroke="black" stroke-opacity="0.5"/>
<path d="M62.1369 9.71156C62.1369 4.61842 66.2128 0.500276 71.2292 0.500275L78.0809 0.500275C79.3127 0.500275 80.3215 1.51281 80.3215 2.77498L80.3215 9.71156C80.3215 14.8047 76.2456 18.9229 71.2292 18.9229C66.2128 18.9229 62.1369 14.8047 62.1369 9.71156Z" stroke="black" stroke-opacity="0.5"/>
<path d="M61.0916 41.5438C71.7041 41.5438 80.3215 50.2584 80.3215 61.0214L80.3215 75.2911C80.3215 78.1731 78.0143 80.499 75.1824 80.499L61.0916 80.499C50.4755 80.499 41.8617 71.7845 41.8617 61.0214C41.8617 50.2583 50.4755 41.5438 61.0916 41.5438Z" stroke="black" stroke-opacity="0.5"/>
<path d="M20.5533 39.458C9.9372 39.458 1.32333 30.7433 1.32332 19.9804L1.32332 5.71061C1.32332 2.82821 3.62738 0.502834 6.45894 0.502833L20.5533 0.502832C31.1658 0.502831 39.7832 9.21726 39.7832 19.9804C39.7832 30.7432 31.1658 39.458 20.5533 39.458Z" stroke="black" stroke-opacity="0.5"/>
<path d="M39.7832 61.0214C39.7832 71.7845 31.1658 80.499 20.5533 80.499L6.45895 80.499C3.62741 80.499 1.32333 78.1735 1.32333 75.2911L1.32332 61.0214C1.32332 50.2583 9.93719 41.5438 20.5533 41.5438C31.1658 41.5438 39.7832 50.2584 39.7832 61.0214Z" stroke="black" stroke-opacity="0.5"/>
<path d="M60.0403 30.2438C60.0403 35.3369 55.9643 39.4551 50.9479 39.4551L44.0962 39.4551C42.8684 39.4551 41.8592 38.443 41.8592 37.1804L41.8592 30.2438C41.8592 25.1505 45.9352 21.0325 50.9479 21.0325C55.9643 21.0325 60.0403 25.1506 60.0403 30.2438Z" stroke="black" stroke-opacity="0.5"/>
<path d="M50.9479 0.500275C55.9643 0.500275 60.0403 4.61842 60.0403 9.71157C60.0403 14.8047 55.9643 18.9229 50.9479 18.9229C45.9352 18.9229 41.8592 14.8048 41.8592 9.71157L41.8592 2.77498C41.8592 1.51238 42.8684 0.500276 44.0962 0.500276L50.9479 0.500275Z" stroke="black" stroke-opacity="0.5"/>
</g>
<g opacity="0.45" clip-path="url(#clip1_1707_39296)">
<path d="M1228.65 41.5451C1233.66 41.5451 1237.74 45.6633 1237.74 50.7564C1237.74 55.8496 1233.66 59.9678 1228.65 59.9678C1223.63 59.9678 1219.56 55.8496 1219.56 50.7565L1219.56 43.8198C1219.56 42.5576 1220.57 41.5451 1221.8 41.5451L1228.65 41.5451Z" stroke="black" stroke-opacity="0.5"/>
<path d="M1237.74 71.2877C1237.74 76.3809 1233.66 80.499 1228.65 80.499L1221.8 80.499C1220.57 80.499 1219.56 79.4865 1219.56 78.2244L1219.56 71.2877C1219.56 66.1945 1223.63 62.0764 1228.65 62.0764C1233.66 62.0764 1237.74 66.1945 1237.74 71.2877Z" stroke="black" stroke-opacity="0.5"/>
<path d="M1238.79 39.4551C1228.18 39.4551 1219.56 30.7407 1219.56 19.9775L1219.56 5.70768C1219.56 2.82583 1221.87 0.499904 1224.7 0.499904L1238.79 0.499903C1249.41 0.499902 1258.02 9.21429 1258.02 19.9775C1258.02 30.7407 1249.41 39.4551 1238.79 39.4551Z" stroke="black" stroke-opacity="0.5"/>
<path d="M1279.33 41.5408C1289.94 41.5408 1298.56 50.2554 1298.56 61.0185L1298.56 75.2882C1298.56 78.1703 1296.25 80.4961 1293.42 80.4961L1279.33 80.4961C1268.71 80.4961 1260.1 71.7816 1260.1 61.0185C1260.1 50.2554 1268.71 41.5408 1279.33 41.5408Z" stroke="black" stroke-opacity="0.5"/>
<path d="M1260.1 19.9775C1260.1 9.2143 1268.71 0.499903 1279.33 0.499903L1293.42 0.499901C1296.25 0.499901 1298.56 2.82582 1298.56 5.70768L1298.56 19.9775C1298.56 30.7407 1289.94 39.4551 1279.33 39.4551C1268.71 39.4551 1260.1 30.7407 1260.1 19.9775Z" stroke="black" stroke-opacity="0.5"/>
<path d="M1239.84 50.7564C1239.84 45.6633 1243.92 41.5451 1248.93 41.5451L1255.78 41.5451C1257.01 41.5451 1258.02 42.5576 1258.02 43.8198L1258.02 50.7564C1258.02 55.8496 1253.95 59.9678 1248.93 59.9678C1243.92 59.9678 1239.84 55.8496 1239.84 50.7564Z" stroke="black" stroke-opacity="0.5"/>
<path d="M1248.93 80.5C1243.92 80.5 1239.84 76.3818 1239.84 71.2887C1239.84 66.1955 1243.92 62.0774 1248.93 62.0774C1253.95 62.0774 1258.02 66.1955 1258.02 71.2887L1258.02 78.2253C1258.02 79.4875 1257.01 80.5 1255.78 80.5L1248.93 80.5Z" stroke="black" stroke-opacity="0.5"/>
<path d="M1208.38 39.4551C1203.36 39.4551 1199.29 35.337 1199.29 30.2438C1199.29 25.1506 1203.36 21.0325 1208.38 21.0325C1213.39 21.0325 1217.47 25.1506 1217.47 30.2438L1217.47 37.1804C1217.47 38.4426 1216.46 39.4551 1215.23 39.4551L1208.38 39.4551Z" stroke="black" stroke-opacity="0.5"/>
<path d="M1199.29 9.71156C1199.29 4.61837 1203.36 0.500276 1208.38 0.500275L1215.23 0.500275C1216.46 0.500275 1217.47 1.51276 1217.47 2.77498L1217.47 9.71156C1217.47 14.8048 1213.39 18.9229 1208.38 18.9229C1203.36 18.9229 1199.29 14.8048 1199.29 9.71156Z" stroke="black" stroke-opacity="0.5"/>
<path d="M1198.24 41.5439C1208.85 41.5439 1217.47 50.2583 1217.47 61.0214L1217.47 75.2911C1217.47 78.1733 1215.16 80.499 1212.33 80.499L1198.24 80.499C1187.63 80.499 1179.01 71.7845 1179.01 61.0214C1179.01 50.2583 1187.63 41.5439 1198.24 41.5439Z" stroke="black" stroke-opacity="0.5"/>
<path d="M1157.7 39.458C1147.09 39.458 1138.47 30.7433 1138.47 19.9804L1138.47 5.71061C1138.47 2.82841 1140.78 0.502834 1143.61 0.502833L1157.7 0.502832C1168.32 0.502831 1176.93 9.21722 1176.93 19.9804C1176.93 30.7433 1168.32 39.458 1157.7 39.458Z" stroke="black" stroke-opacity="0.5"/>
<path d="M1176.93 61.0214C1176.93 71.7845 1168.32 80.499 1157.7 80.499L1143.61 80.499C1140.78 80.499 1138.47 78.1733 1138.47 75.2911L1138.47 61.0214C1138.47 50.2584 1147.09 41.5439 1157.7 41.5439C1168.32 41.5439 1176.93 50.2583 1176.93 61.0214Z" stroke="black" stroke-opacity="0.5"/>
<path d="M1197.19 30.2438C1197.19 35.337 1193.12 39.4551 1188.1 39.4551L1181.25 39.4551C1180.02 39.4551 1179.01 38.4425 1179.01 37.1804L1179.01 30.2438C1179.01 25.1506 1183.09 21.0325 1188.1 21.0325C1193.12 21.0325 1197.19 25.1506 1197.19 30.2438Z" stroke="black" stroke-opacity="0.5"/>
<path d="M1188.1 0.500275C1193.12 0.500275 1197.19 4.61837 1197.19 9.71157C1197.19 14.8048 1193.12 18.9229 1188.1 18.9229C1183.09 18.9229 1179.01 14.8048 1179.01 9.71157L1179.01 2.77498C1179.01 1.51276 1180.02 0.500276 1181.25 0.500276L1188.1 0.500275Z" stroke="black" stroke-opacity="0.5"/>
<path d="M1066.49 41.545C1071.51 41.545 1075.58 45.6633 1075.58 50.7564C1075.58 55.8496 1071.51 59.9678 1066.49 59.9678C1061.48 59.9678 1057.4 55.8496 1057.4 50.7564L1057.4 43.8197C1057.4 42.5575 1058.41 41.545 1059.64 41.545L1066.49 41.545Z" stroke="black" stroke-opacity="0.5"/>
<path d="M1075.58 71.2877C1075.58 76.3809 1071.51 80.499 1066.49 80.499L1059.64 80.499C1058.41 80.499 1057.4 79.4865 1057.4 78.2244L1057.4 71.2877C1057.4 66.1945 1061.48 62.0764 1066.49 62.0764C1071.51 62.0764 1075.58 66.1945 1075.58 71.2877Z" stroke="black" stroke-opacity="0.5"/>
<path d="M1076.63 39.4551C1066.02 39.4551 1057.4 30.7407 1057.4 19.9775L1057.4 5.70805C1057.4 2.82581 1059.71 0.499904 1062.54 0.499904L1076.63 0.499903C1087.25 0.499902 1095.86 9.21465 1095.86 19.9775C1095.86 30.7407 1087.25 39.4551 1076.63 39.4551Z" stroke="black" stroke-opacity="0.5"/>
<path d="M1117.17 41.5411C1127.78 41.5411 1136.4 50.2554 1136.4 61.0185L1136.4 75.2882C1136.4 78.1703 1134.09 80.4961 1131.26 80.4961L1117.17 80.4961C1106.55 80.4961 1097.94 71.7816 1097.94 61.0185C1097.94 50.2554 1106.55 41.5411 1117.17 41.5411Z" stroke="black" stroke-opacity="0.5"/>
<path d="M1097.94 19.9775C1097.94 9.21465 1106.55 0.499903 1117.17 0.499903L1131.26 0.499901C1134.09 0.499901 1136.4 2.82581 1136.4 5.70805L1136.4 19.9775C1136.4 30.7407 1127.78 39.4551 1117.17 39.4551C1106.55 39.4551 1097.94 30.7407 1097.94 19.9775Z" stroke="black" stroke-opacity="0.5"/>
<path d="M1077.68 50.7565C1077.68 45.6633 1081.76 41.545 1086.77 41.545L1093.62 41.545C1094.85 41.545 1095.86 42.5575 1095.86 43.8197L1095.86 50.7564C1095.86 55.8496 1091.79 59.9678 1086.77 59.9678C1081.76 59.9678 1077.68 55.8496 1077.68 50.7565Z" stroke="black" stroke-opacity="0.5"/>
<path d="M1086.77 80.499C1081.76 80.499 1077.68 76.3809 1077.68 71.2877C1077.68 66.1945 1081.76 62.0763 1086.77 62.0763C1091.79 62.0763 1095.86 66.1945 1095.86 71.2877L1095.86 78.2244C1095.86 79.4865 1094.85 80.499 1093.62 80.499L1086.77 80.499Z" stroke="black" stroke-opacity="0.5"/>
<path d="M1046.23 39.4551C1041.22 39.4551 1037.14 35.337 1037.14 30.2438C1037.14 25.1506 1041.22 21.0325 1046.23 21.0325C1051.25 21.0325 1055.32 25.1506 1055.32 30.2438L1055.32 37.1804C1055.32 38.4426 1054.31 39.4551 1053.08 39.4551L1046.23 39.4551Z" stroke="black" stroke-opacity="0.5"/>
<path d="M1037.14 9.71156C1037.14 4.61837 1041.22 0.500276 1046.23 0.500275L1053.08 0.500275C1054.31 0.500275 1055.32 1.51276 1055.32 2.77498L1055.32 9.71156C1055.32 14.8048 1051.25 18.9229 1046.23 18.9229C1041.22 18.9229 1037.14 14.8048 1037.14 9.71156Z" stroke="black" stroke-opacity="0.5"/>
<path d="M1036.09 41.5438C1046.71 41.5438 1055.32 50.2584 1055.32 61.0214L1055.32 75.2911C1055.32 78.1733 1053.02 80.499 1050.19 80.499L1036.09 80.499C1025.48 80.499 1016.86 71.7845 1016.86 61.0214C1016.86 50.2584 1025.48 41.5438 1036.09 41.5438Z" stroke="black" stroke-opacity="0.5"/>
<path d="M995.559 39.458C984.944 39.458 976.329 30.7433 976.329 19.9804L976.329 5.71061C976.329 2.82841 978.635 0.502834 981.466 0.502833L995.559 0.502832C1006.17 0.502831 1014.79 9.21722 1014.79 19.9804C1014.79 30.7433 1006.17 39.458 995.559 39.458Z" stroke="black" stroke-opacity="0.5"/>
<path d="M1014.79 61.0214C1014.79 71.7845 1006.17 80.499 995.559 80.499L981.466 80.499C978.635 80.499 976.329 78.1733 976.329 75.2911L976.329 61.0214C976.329 50.2584 984.944 41.5438 995.559 41.5438C1006.17 41.5438 1014.79 50.2584 1014.79 61.0214Z" stroke="black" stroke-opacity="0.5"/>
<path d="M1035.05 30.2438C1035.05 35.337 1030.97 39.4551 1025.96 39.4551L1019.1 39.4551C1017.87 39.4551 1016.86 38.4426 1016.86 37.1804L1016.86 30.2438C1016.86 25.1506 1020.94 21.0325 1025.96 21.0325C1030.97 21.0325 1035.05 25.1506 1035.05 30.2438Z" stroke="black" stroke-opacity="0.5"/>
<path d="M1025.96 0.500275C1030.97 0.500275 1035.05 4.61837 1035.05 9.71157C1035.05 14.8048 1030.97 18.9229 1025.96 18.9229C1020.94 18.9229 1016.86 14.8048 1016.86 9.71157L1016.86 2.77498C1016.86 1.51276 1017.87 0.500276 1019.1 0.500276L1025.96 0.500275Z" stroke="black" stroke-opacity="0.5"/>
<path d="M903.646 41.5451C908.659 41.5451 912.735 45.6632 912.735 50.7564C912.735 55.8497 908.659 59.9678 903.646 59.9678C898.63 59.9678 894.554 55.8496 894.554 50.7565L894.554 43.8198C894.554 42.5577 895.563 41.5451 896.794 41.5451L903.646 41.5451Z" stroke="black" stroke-opacity="0.5"/>
<path d="M912.735 71.2877C912.735 76.381 908.659 80.499 903.646 80.499L896.794 80.499C895.563 80.499 894.554 79.4865 894.554 78.2244L894.554 71.2877C894.554 66.1946 898.63 62.0764 903.646 62.0764C908.659 62.0764 912.735 66.1945 912.735 71.2877Z" stroke="black" stroke-opacity="0.5"/>
<path d="M913.786 39.4551C903.17 39.4551 894.556 30.7407 894.556 19.9775L894.556 5.70768C894.556 2.82582 896.864 0.499904 899.692 0.499904L913.786 0.499903C924.402 0.499902 933.016 9.21427 933.016 19.9775C933.016 30.7407 924.402 39.4551 913.786 39.4551Z" stroke="black" stroke-opacity="0.5"/>
<path d="M954.321 41.5408C964.936 41.5408 973.551 50.2554 973.551 61.0185L973.551 75.2882C973.551 78.1703 971.245 80.4961 968.414 80.4961L954.321 80.4961C943.706 80.4961 935.091 71.7816 935.091 61.0185C935.091 50.2554 943.706 41.5408 954.321 41.5408Z" stroke="black" stroke-opacity="0.5"/>
<path d="M935.091 19.9775C935.091 9.2143 943.706 0.499903 954.321 0.499903L968.414 0.499901C971.245 0.499901 973.551 2.82582 973.551 5.70768L973.551 19.9775C973.551 30.7407 964.936 39.4551 954.321 39.4551C943.706 39.4551 935.091 30.7407 935.091 19.9775Z" stroke="black" stroke-opacity="0.5"/>
<path d="M914.835 50.7564C914.835 45.6632 918.911 41.5451 923.924 41.5451L930.775 41.5451C932.007 41.5451 933.016 42.5576 933.016 43.8198L933.016 50.7564C933.016 55.8496 928.94 59.9678 923.924 59.9678C918.911 59.9678 914.835 55.8497 914.835 50.7564Z" stroke="black" stroke-opacity="0.5"/>
<path d="M923.924 80.5C918.911 80.5 914.835 76.3819 914.835 71.2887C914.835 66.1954 918.911 62.0774 923.924 62.0774C928.94 62.0774 933.016 66.1955 933.016 71.2887L933.016 78.2253C933.016 79.4874 932.007 80.5 930.775 80.5L923.924 80.5Z" stroke="black" stroke-opacity="0.5"/>
<path d="M883.372 39.4551C878.359 39.4551 874.283 35.3371 874.283 30.2438C874.283 25.1505 878.359 21.0325 883.372 21.0325C888.388 21.0325 892.464 25.1506 892.464 30.2438L892.464 37.1804C892.464 38.4425 891.455 39.4551 890.223 39.4551L883.372 39.4551Z" stroke="black" stroke-opacity="0.5"/>
<path d="M874.283 9.71156C874.283 4.61829 878.359 0.500276 883.372 0.500275L890.223 0.500275C891.455 0.500275 892.464 1.51281 892.464 2.77498L892.464 9.71156C892.464 14.8047 888.388 18.9229 883.372 18.9229C878.359 18.9229 874.283 14.8048 874.283 9.71156Z" stroke="black" stroke-opacity="0.5"/>
<path d="M873.234 41.5439C883.847 41.5439 892.464 50.2584 892.464 61.0214L892.464 75.2911C892.464 78.1731 890.157 80.499 887.325 80.499L873.234 80.499C862.618 80.499 854.004 71.7846 854.004 61.0214C854.004 50.2583 862.618 41.5439 873.234 41.5439Z" stroke="black" stroke-opacity="0.5"/>
<path d="M832.696 39.458C822.08 39.458 813.466 30.7433 813.466 19.9804L813.466 5.71061C813.466 2.82821 815.77 0.502834 818.602 0.502833L832.696 0.502832C843.308 0.502831 851.926 9.21726 851.926 19.9804C851.926 30.7432 843.308 39.458 832.696 39.458Z" stroke="black" stroke-opacity="0.5"/>
<path d="M851.926 61.0214C851.926 71.7845 843.308 80.499 832.696 80.499L818.602 80.499C815.77 80.499 813.466 78.1735 813.466 75.2911L813.466 61.0214C813.466 50.2584 822.08 41.5439 832.696 41.5439C843.308 41.5439 851.926 50.2584 851.926 61.0214Z" stroke="black" stroke-opacity="0.5"/>
<path d="M872.186 30.2438C872.186 35.3369 868.11 39.4551 863.094 39.4551L856.246 39.4551C855.014 39.4551 854.005 38.4425 854.005 37.1804L854.005 30.2438C854.005 25.1505 858.081 21.0325 863.094 21.0325C868.11 21.0325 872.186 25.1506 872.186 30.2438Z" stroke="black" stroke-opacity="0.5"/>
<path d="M863.094 0.500275C868.11 0.500275 872.186 4.61842 872.186 9.71157C872.186 14.8047 868.11 18.9229 863.094 18.9229C858.081 18.9229 854.005 14.8048 854.005 9.71157L854.005 2.77498C854.005 1.51281 855.014 0.500276 856.246 0.500276L863.094 0.500275Z" stroke="black" stroke-opacity="0.5"/>
<path d="M741.486 41.545C746.502 41.545 750.578 45.6633 750.578 50.7564C750.578 55.8496 746.502 59.9678 741.486 59.9678C736.473 59.9678 732.397 55.8497 732.397 50.7564L732.397 43.8197C732.397 42.5575 733.406 41.545 734.638 41.545L741.486 41.545Z" stroke="black" stroke-opacity="0.5"/>
<path d="M750.578 71.2877C750.578 76.3808 746.502 80.499 741.486 80.499L734.638 80.499C733.406 80.499 732.397 79.4865 732.397 78.2244L732.397 71.2877C732.397 66.1944 736.473 62.0764 741.486 62.0764C746.502 62.0764 750.578 66.1946 750.578 71.2877Z" stroke="black" stroke-opacity="0.5"/>
<path d="M751.626 39.4551C741.01 39.4551 732.396 30.7407 732.396 19.9775L732.396 5.70805C732.396 2.82561 734.7 0.499904 737.532 0.499904L751.626 0.499903C762.239 0.499902 770.856 9.21469 770.856 19.9775C770.856 30.7406 762.239 39.4551 751.626 39.4551Z" stroke="black" stroke-opacity="0.5"/>
<path d="M792.161 41.5411C802.774 41.5411 811.391 50.2555 811.391 61.0185L811.391 75.2882C811.391 78.1701 809.084 80.4961 806.252 80.4961L792.161 80.4961C781.545 80.4961 772.931 71.7816 772.931 61.0185C772.931 50.2554 781.545 41.5411 792.161 41.5411Z" stroke="black" stroke-opacity="0.5"/>
<path d="M772.931 19.9775C772.931 9.21463 781.545 0.499903 792.161 0.499903L806.252 0.499901C809.084 0.499901 811.391 2.82602 811.391 5.70805L811.391 19.9775C811.391 30.7406 802.774 39.4551 792.161 39.4551C781.545 39.4551 772.931 30.7407 772.931 19.9775Z" stroke="black" stroke-opacity="0.5"/>
<path d="M752.675 50.7565C752.675 45.6632 756.751 41.545 761.764 41.545L768.616 41.545C769.847 41.545 770.856 42.5575 770.856 43.8197L770.856 50.7564C770.856 55.8496 766.78 59.9678 761.764 59.9678C756.751 59.9678 752.675 55.8497 752.675 50.7565Z" stroke="black" stroke-opacity="0.5"/>
<path d="M761.764 80.499C756.751 80.499 752.675 76.3809 752.675 71.2877C752.675 66.1944 756.751 62.0763 761.764 62.0763C766.78 62.0763 770.856 66.1946 770.856 71.2877L770.856 78.2244C770.856 79.4865 769.847 80.499 768.616 80.499L761.764 80.499Z" stroke="black" stroke-opacity="0.5"/>
<path d="M721.229 39.4551C716.213 39.4551 712.137 35.3369 712.137 30.2438C712.137 25.1506 716.213 21.0325 721.229 21.0325C726.246 21.0325 730.322 25.1506 730.322 30.2438L730.322 37.1804C730.322 38.4425 729.313 39.4551 728.081 39.4551L721.229 39.4551Z" stroke="black" stroke-opacity="0.5"/>
<path d="M712.137 9.71156C712.137 4.61842 716.213 0.500276 721.229 0.500275L728.081 0.500275C729.313 0.500275 730.322 1.51281 730.322 2.77498L730.322 9.71156C730.322 14.8047 726.246 18.9229 721.229 18.9229C716.213 18.9229 712.137 14.8047 712.137 9.71156Z" stroke="black" stroke-opacity="0.5"/>
<path d="M711.092 41.5438C721.704 41.5438 730.322 50.2584 730.322 61.0214L730.322 75.2911C730.322 78.1731 728.014 80.499 725.182 80.499L711.092 80.499C700.476 80.499 691.862 71.7845 691.862 61.0214C691.862 50.2583 700.476 41.5438 711.092 41.5438Z" stroke="black" stroke-opacity="0.5"/>
<path d="M670.553 39.458C659.937 39.458 651.323 30.7433 651.323 19.9804L651.323 5.71061C651.323 2.82821 653.627 0.502834 656.459 0.502833L670.553 0.502832C681.166 0.502831 689.783 9.21726 689.783 19.9804C689.783 30.7432 681.166 39.458 670.553 39.458Z" stroke="black" stroke-opacity="0.5"/>
<path d="M689.783 61.0214C689.783 71.7845 681.166 80.499 670.553 80.499L656.459 80.499C653.627 80.499 651.323 78.1735 651.323 75.2911L651.323 61.0214C651.323 50.2583 659.937 41.5438 670.553 41.5438C681.166 41.5438 689.783 50.2584 689.783 61.0214Z" stroke="black" stroke-opacity="0.5"/>
<path d="M710.04 30.2438C710.04 35.3369 705.964 39.4551 700.948 39.4551L694.096 39.4551C692.868 39.4551 691.859 38.443 691.859 37.1804L691.859 30.2438C691.859 25.1505 695.935 21.0325 700.948 21.0325C705.964 21.0325 710.04 25.1506 710.04 30.2438Z" stroke="black" stroke-opacity="0.5"/>
<path d="M700.948 0.500275C705.964 0.500275 710.04 4.61842 710.04 9.71157C710.04 14.8047 705.964 18.9229 700.948 18.9229C695.935 18.9229 691.859 14.8048 691.859 9.71157L691.859 2.77498C691.859 1.51238 692.868 0.500276 694.096 0.500276L700.948 0.500275Z" stroke="black" stroke-opacity="0.5"/>
</g>
<defs>
<clipPath id="clip0_1707_39296">
<rect width="649" height="81.0001" fill="white" transform="translate(649.5 81) rotate(180)"/>
</clipPath>
<clipPath id="clip1_1707_39296">
<rect width="649" height="81.0001" fill="white" transform="translate(1299.5 81) rotate(180)"/>
</clipPath>
</defs>
</svg>
