<svg width="649" height="82" viewBox="0 0 649 82" fill="none" xmlns="http://www.w3.org/2000/svg">
<g opacity="0.45" clip-path="url(#clip0_1747_35610)">
<path d="M578.15 41.8508C583.165 41.8508 587.241 45.969 587.241 51.0621C587.241 56.1553 583.165 60.2734 578.15 60.2734C573.135 60.2734 569.059 56.1553 569.059 51.0621L569.059 44.1255C569.059 42.8633 570.068 41.8508 571.299 41.8508L578.15 41.8508Z" stroke="black" stroke-opacity="0.5"/>
<path d="M587.241 71.5953C587.241 76.6885 583.165 80.8066 578.15 80.8066L571.299 80.8066C570.068 80.8066 569.059 79.7941 569.059 78.532L569.059 71.5953C569.059 66.5021 573.135 62.384 578.15 62.384C583.165 62.384 587.241 66.5021 587.241 71.5953Z" stroke="black" stroke-opacity="0.5"/>
<path d="M588.292 39.7617C577.677 39.7617 569.062 31.0473 569.062 20.2841L569.062 6.01432C569.062 3.13247 571.368 0.806545 574.199 0.806544L588.292 0.806543C598.907 0.806542 607.522 9.52093 607.522 20.2841C607.522 31.0473 598.907 39.7617 588.292 39.7617Z" stroke="black" stroke-opacity="0.5"/>
<path d="M628.827 41.8475C639.441 41.8475 648.057 50.5621 648.057 61.3251L648.057 75.5948C648.057 78.477 645.751 80.8027 642.92 80.8027L628.827 80.8027C618.212 80.8027 609.597 72.0882 609.597 61.3251C609.597 50.5621 618.212 41.8475 628.827 41.8475Z" stroke="black" stroke-opacity="0.5"/>
<path d="M609.597 20.2841C609.597 9.52094 618.212 0.806544 628.827 0.806543L642.92 0.806542C645.751 0.806542 648.057 3.13246 648.057 6.01432L648.057 20.2841C648.057 31.0473 639.441 39.7617 628.827 39.7617C618.212 39.7617 609.597 31.0473 609.597 20.2841Z" stroke="black" stroke-opacity="0.5"/>
<path d="M589.34 51.0621C589.34 45.969 593.416 41.8508 598.431 41.8508L605.282 41.8508C606.513 41.8508 607.522 42.8633 607.522 44.1255L607.522 51.0621C607.522 56.1553 603.446 60.2734 598.431 60.2734C593.416 60.2734 589.34 56.1553 589.34 51.0621Z" stroke="black" stroke-opacity="0.5"/>
<path d="M598.431 80.8066C593.416 80.8066 589.34 76.6885 589.34 71.5953C589.34 66.5021 593.416 62.384 598.431 62.384C603.446 62.384 607.522 66.5021 607.522 71.5953L607.522 78.532C607.522 79.7941 606.513 80.8066 605.282 80.8066L598.431 80.8066Z" stroke="black" stroke-opacity="0.5"/>
<path d="M557.879 39.7617C552.864 39.7617 548.788 35.6436 548.788 30.5504C548.788 25.4572 552.864 21.3391 557.879 21.3391C562.894 21.3391 566.97 25.4572 566.97 30.5504L566.97 37.487C566.97 38.7492 565.961 39.7617 564.729 39.7617L557.879 39.7617Z" stroke="black" stroke-opacity="0.5"/>
<path d="M548.788 10.0172C548.788 4.92403 552.864 0.80594 557.879 0.80594L564.729 0.805939C565.961 0.805939 566.97 1.81843 566.97 3.08065L566.97 10.0172C566.97 15.1104 562.894 19.2285 557.879 19.2285C552.864 19.2285 548.788 15.1104 548.788 10.0172Z" stroke="black" stroke-opacity="0.5"/>
<path d="M547.74 41.8515C558.354 41.8515 566.97 50.566 566.97 61.3291L566.97 75.5988C566.97 78.4809 564.664 80.8066 561.833 80.8066L547.74 80.8066C537.125 80.8066 528.51 72.0921 528.51 61.3291C528.51 50.566 537.125 41.8515 547.74 41.8515Z" stroke="black" stroke-opacity="0.5"/>
<path d="M507.202 39.7656C496.587 39.7656 487.972 31.0509 487.972 20.288L487.972 6.01823C487.972 3.13603 490.278 0.810451 493.109 0.810451L507.202 0.810449C517.816 0.810448 526.432 9.52484 526.432 20.288C526.432 31.0509 517.816 39.7656 507.202 39.7656Z" stroke="black" stroke-opacity="0.5"/>
<path d="M526.432 61.329C526.432 72.0921 517.816 80.8066 507.202 80.8066L493.109 80.8066C490.278 80.8066 487.972 78.4809 487.972 75.5988L487.972 61.329C487.972 50.566 496.587 41.8515 507.202 41.8515C517.816 41.8515 526.432 50.566 526.432 61.329Z" stroke="black" stroke-opacity="0.5"/>
<path d="M546.692 30.5504C546.692 35.6436 542.616 39.7617 537.601 39.7617L530.75 39.7617C529.519 39.7617 528.51 38.7492 528.51 37.487L528.51 30.5504C528.51 25.4573 532.586 21.3391 537.601 21.3391C542.616 21.3391 546.692 25.4572 546.692 30.5504Z" stroke="black" stroke-opacity="0.5"/>
<path d="M537.601 0.80594C542.616 0.805939 546.692 4.92404 546.692 10.0172C546.692 15.1104 542.616 19.2285 537.601 19.2285C532.586 19.2285 528.51 15.1104 528.51 10.0172L528.51 3.08065C528.51 1.81843 529.519 0.80594 530.75 0.80594L537.601 0.80594Z" stroke="black" stroke-opacity="0.5"/>
<path d="M415.993 41.8507C421.008 41.8507 425.084 45.9689 425.084 51.0621C425.084 56.1553 421.008 60.2734 415.993 60.2734C410.978 60.2734 406.902 56.1553 406.902 51.0621L406.902 44.1254C406.902 42.8632 407.911 41.8507 409.142 41.8507L415.993 41.8507Z" stroke="black" stroke-opacity="0.5"/>
<path d="M425.084 71.5953C425.084 76.6885 421.008 80.8066 415.993 80.8066L409.142 80.8066C407.911 80.8066 406.902 79.7941 406.902 78.532L406.902 71.5953C406.902 66.5021 410.978 62.384 415.993 62.384C421.008 62.384 425.084 66.5021 425.084 71.5953Z" stroke="black" stroke-opacity="0.5"/>
<path d="M426.132 39.7617C415.517 39.7617 406.902 31.0473 406.902 20.2841L406.902 6.01469C406.902 3.13245 409.208 0.806545 412.039 0.806544L426.132 0.806543C436.747 0.806542 445.362 9.52129 445.362 20.2841C445.362 31.0473 436.747 39.7617 426.132 39.7617Z" stroke="black" stroke-opacity="0.5"/>
<path d="M466.667 41.8477C477.282 41.8477 485.897 50.5621 485.897 61.3251L485.897 75.5948C485.897 78.477 483.591 80.8027 480.76 80.8027L466.667 80.8027C456.052 80.8027 447.437 72.0882 447.437 61.3251C447.437 50.5621 456.052 41.8477 466.667 41.8477Z" stroke="black" stroke-opacity="0.5"/>
<path d="M447.437 20.2841C447.437 9.5213 456.052 0.806544 466.667 0.806543L480.76 0.806542C483.591 0.806542 485.897 3.13245 485.897 6.01469L485.897 20.2841C485.897 31.0473 477.282 39.7617 466.667 39.7617C456.052 39.7617 447.437 31.0473 447.437 20.2841Z" stroke="black" stroke-opacity="0.5"/>
<path d="M427.18 51.0621C427.18 45.969 431.256 41.8506 436.271 41.8506L443.122 41.8506C444.353 41.8506 445.362 42.8631 445.362 44.1254L445.362 51.0621C445.362 56.1553 441.286 60.2734 436.271 60.2734C431.256 60.2734 427.18 56.1553 427.18 51.0621Z" stroke="black" stroke-opacity="0.5"/>
<path d="M436.271 80.8066C431.256 80.8066 427.18 76.6885 427.18 71.5953C427.18 66.5021 431.256 62.384 436.271 62.384C441.286 62.384 445.362 66.5021 445.362 71.5953L445.362 78.532C445.362 79.7941 444.353 80.8066 443.121 80.8066L436.271 80.8066Z" stroke="black" stroke-opacity="0.5"/>
<path d="M395.733 39.7617C390.718 39.7617 386.642 35.6436 386.642 30.5504C386.642 25.4572 390.718 21.3391 395.733 21.3391C400.748 21.3391 404.824 25.4572 404.824 30.5504L404.824 37.487C404.824 38.7492 403.815 39.7617 402.583 39.7617L395.733 39.7617Z" stroke="black" stroke-opacity="0.5"/>
<path d="M386.642 10.0172C386.642 4.92403 390.718 0.80594 395.733 0.80594L402.583 0.805939C403.815 0.805939 404.824 1.81843 404.824 3.08065L404.824 10.0172C404.824 15.1104 400.748 19.2285 395.733 19.2285C390.718 19.2285 386.642 15.1104 386.642 10.0172Z" stroke="black" stroke-opacity="0.5"/>
<path d="M385.594 41.8515C396.208 41.8515 404.824 50.566 404.824 61.329L404.824 75.5987C404.824 78.4809 402.518 80.8066 399.687 80.8066L385.594 80.8066C374.979 80.8066 366.364 72.0921 366.364 61.329C366.364 50.566 374.979 41.8515 385.594 41.8515Z" stroke="black" stroke-opacity="0.5"/>
<path d="M345.059 39.7656C334.444 39.7656 325.829 31.0509 325.829 20.288L325.829 6.01823C325.829 3.13603 328.135 0.810451 330.966 0.810451L345.059 0.810449C355.674 0.810448 364.289 9.52484 364.289 20.288C364.289 31.0509 355.674 39.7656 345.059 39.7656Z" stroke="black" stroke-opacity="0.5"/>
<path d="M364.289 61.329C364.289 72.0921 355.674 80.8066 345.059 80.8066L330.966 80.8066C328.135 80.8066 325.829 78.4809 325.829 75.5987L325.829 61.329C325.829 50.566 334.444 41.8515 345.059 41.8515C355.674 41.8515 364.289 50.566 364.289 61.329Z" stroke="black" stroke-opacity="0.5"/>
<path d="M384.546 30.5504C384.546 35.6436 380.47 39.7617 375.455 39.7617L368.604 39.7617C367.373 39.7617 366.364 38.7493 366.364 37.487L366.364 30.5504C366.364 25.4572 370.44 21.3391 375.455 21.3391C380.47 21.3391 384.546 25.4572 384.546 30.5504Z" stroke="black" stroke-opacity="0.5"/>
<path d="M375.455 0.80594C380.47 0.805939 384.546 4.92404 384.546 10.0172C384.546 15.1104 380.47 19.2285 375.455 19.2285C370.44 19.2285 366.364 15.1104 366.364 10.0172L366.364 3.08065C366.364 1.81843 367.373 0.80594 368.604 0.80594L375.455 0.80594Z" stroke="black" stroke-opacity="0.5"/>
<path d="M253.146 41.8508C258.159 41.8508 262.235 45.9689 262.235 51.0621C262.235 56.1554 258.159 60.2734 253.146 60.2734C248.13 60.2734 244.054 56.1553 244.054 51.0621L244.054 44.1255C244.054 42.8633 245.063 41.8508 246.294 41.8508L253.146 41.8508Z" stroke="black" stroke-opacity="0.5"/>
<path d="M262.235 71.5953C262.235 76.6886 258.159 80.8066 253.146 80.8066L246.294 80.8066C245.063 80.8066 244.054 79.7941 244.054 78.532L244.054 71.5953C244.054 66.5022 248.13 62.384 253.146 62.384C258.159 62.384 262.235 66.5021 262.235 71.5953Z" stroke="black" stroke-opacity="0.5"/>
<path d="M263.286 39.7617C252.67 39.7617 244.056 31.0474 244.056 20.2841L244.056 6.01432C244.056 3.13246 246.364 0.806545 249.192 0.806544L263.286 0.806543C273.902 0.806542 282.516 9.52091 282.516 20.2841C282.516 31.0474 273.902 39.7617 263.286 39.7617Z" stroke="black" stroke-opacity="0.5"/>
<path d="M303.821 41.8475C314.436 41.8475 323.051 50.5621 323.051 61.3251L323.051 75.5948C323.051 78.477 320.745 80.8027 317.914 80.8027L303.821 80.8027C293.207 80.8027 284.591 72.0882 284.591 61.3251C284.591 50.5621 293.207 41.8475 303.821 41.8475Z" stroke="black" stroke-opacity="0.5"/>
<path d="M284.591 20.2841C284.591 9.52094 293.207 0.806544 303.821 0.806543L317.914 0.806542C320.745 0.806542 323.051 3.13247 323.051 6.01432L323.051 20.2841C323.051 31.0473 314.436 39.7617 303.821 39.7617C293.207 39.7617 284.591 31.0473 284.591 20.2841Z" stroke="black" stroke-opacity="0.5"/>
<path d="M264.335 51.0621C264.335 45.9689 268.411 41.8508 273.424 41.8508L280.275 41.8508C281.507 41.8508 282.516 42.8633 282.516 44.1255L282.516 51.0621C282.516 56.1553 278.44 60.2734 273.424 60.2734C268.411 60.2734 264.335 56.1554 264.335 51.0621Z" stroke="black" stroke-opacity="0.5"/>
<path d="M273.424 80.8066C268.411 80.8066 264.335 76.6886 264.335 71.5953C264.335 66.502 268.411 62.384 273.424 62.384C278.44 62.384 282.516 66.5022 282.516 71.5953L282.516 78.532C282.516 79.7941 281.507 80.8066 280.275 80.8066L273.424 80.8066Z" stroke="black" stroke-opacity="0.5"/>
<path d="M232.872 39.7617C227.859 39.7617 223.783 35.6437 223.783 30.5504C223.783 25.4572 227.859 21.3391 232.872 21.3391C237.888 21.3391 241.964 25.4573 241.964 30.5504L241.964 37.487C241.964 38.7492 240.956 39.7617 239.724 39.7617L232.872 39.7617Z" stroke="black" stroke-opacity="0.5"/>
<path d="M223.783 10.0172C223.783 4.92396 227.859 0.80594 232.872 0.80594L239.724 0.805939C240.956 0.805939 241.964 1.81847 241.964 3.08065L241.964 10.0172C241.964 15.1104 237.888 19.2285 232.872 19.2285C227.859 19.2285 223.783 15.1105 223.783 10.0172Z" stroke="black" stroke-opacity="0.5"/>
<path d="M222.734 41.8515C233.347 41.8515 241.964 50.566 241.964 61.3291L241.964 75.5988C241.964 78.4807 239.657 80.8066 236.825 80.8066L222.734 80.8066C212.118 80.8066 203.504 72.0922 203.504 61.3291C203.504 50.5659 212.118 41.8515 222.734 41.8515Z" stroke="black" stroke-opacity="0.5"/>
<path d="M182.196 39.7656C171.58 39.7656 162.966 31.0509 162.966 20.288L162.966 6.01823C162.966 3.13583 165.27 0.810451 168.102 0.810451L182.196 0.810449C192.808 0.810448 201.426 9.52487 201.426 20.288C201.426 31.0508 192.808 39.7656 182.196 39.7656Z" stroke="black" stroke-opacity="0.5"/>
<path d="M201.426 61.329C201.426 72.0921 192.808 80.8066 182.196 80.8066L168.102 80.8066C165.27 80.8066 162.966 78.4811 162.966 75.5988L162.966 61.329C162.966 50.566 171.58 41.8515 182.196 41.8515C192.808 41.8515 201.426 50.566 201.426 61.329Z" stroke="black" stroke-opacity="0.5"/>
<path d="M221.687 30.5504C221.687 35.6436 217.611 39.7617 212.594 39.7617L205.746 39.7617C204.514 39.7617 203.505 38.7492 203.505 37.487L203.505 30.5504C203.505 25.4572 207.581 21.3391 212.594 21.3391C217.611 21.3391 221.687 25.4573 221.687 30.5504Z" stroke="black" stroke-opacity="0.5"/>
<path d="M212.594 0.80594C217.611 0.805939 221.687 4.92409 221.687 10.0172C221.687 15.1104 217.611 19.2285 212.594 19.2285C207.581 19.2285 203.505 15.1105 203.505 10.0172L203.505 3.08065C203.505 1.81847 204.514 0.80594 205.746 0.80594L212.594 0.80594Z" stroke="black" stroke-opacity="0.5"/>
<path d="M90.9862 41.8507C96.0027 41.8507 100.079 45.969 100.079 51.0621C100.079 56.1552 96.0027 60.2734 90.9862 60.2734C85.9735 60.2734 81.8975 56.1553 81.8975 51.0621L81.8975 44.1254C81.8975 42.8632 82.9063 41.8507 84.1382 41.8507L90.9862 41.8507Z" stroke="black" stroke-opacity="0.5"/>
<path d="M100.079 71.5953C100.079 76.6884 96.0027 80.8066 90.9862 80.8066L84.1382 80.8066C82.9063 80.8066 81.8975 79.7941 81.8975 78.532L81.8975 71.5953C81.8975 66.502 85.9735 62.384 90.9862 62.384C96.0027 62.384 100.079 66.5022 100.079 71.5953Z" stroke="black" stroke-opacity="0.5"/>
<path d="M101.127 39.7617C90.5104 39.7617 81.8966 31.0474 81.8966 20.2841L81.8966 6.01469C81.8966 3.13225 84.2007 0.806545 87.0322 0.806544L101.127 0.806543C111.739 0.806542 120.356 9.52133 120.356 20.2841C120.356 31.0473 111.739 39.7617 101.127 39.7617Z" stroke="black" stroke-opacity="0.5"/>
<path d="M141.661 41.8477C152.274 41.8477 160.891 50.5621 160.891 61.3251L160.891 75.5948C160.891 78.4768 158.584 80.8027 155.752 80.8027L141.661 80.8027C131.045 80.8027 122.431 72.0883 122.431 61.3251C122.431 50.562 131.045 41.8477 141.661 41.8477Z" stroke="black" stroke-opacity="0.5"/>
<path d="M122.431 20.2841C122.431 9.52127 131.045 0.806544 141.661 0.806543L155.752 0.806542C158.584 0.806542 160.891 3.13266 160.891 6.01469L160.891 20.2841C160.891 31.0473 152.274 39.7617 141.661 39.7617C131.045 39.7617 122.431 31.0474 122.431 20.2841Z" stroke="black" stroke-opacity="0.5"/>
<path d="M102.175 51.0621C102.175 45.9689 106.251 41.8506 111.264 41.8506L118.116 41.8506C119.348 41.8506 120.356 42.8632 120.356 44.1254L120.356 51.0621C120.356 56.1553 116.281 60.2734 111.264 60.2734C106.251 60.2734 102.175 56.1553 102.175 51.0621Z" stroke="black" stroke-opacity="0.5"/>
<path d="M111.264 80.8066C106.251 80.8066 102.175 76.6886 102.175 71.5953C102.175 66.5021 106.251 62.384 111.264 62.384C116.281 62.384 120.356 66.5022 120.356 71.5953L120.356 78.532C120.356 79.7941 119.348 80.8066 118.116 80.8066L111.264 80.8066Z" stroke="black" stroke-opacity="0.5"/>
<path d="M70.729 39.7617C65.7125 39.7617 61.6366 35.6436 61.6366 30.5504C61.6366 25.4573 65.7125 21.3391 70.729 21.3391C75.7454 21.3391 79.8213 25.4573 79.8213 30.5504L79.8213 37.487C79.8213 38.7492 78.8125 39.7617 77.5806 39.7617L70.729 39.7617Z" stroke="black" stroke-opacity="0.5"/>
<path d="M61.6366 10.0172C61.6366 4.92408 65.7125 0.80594 70.729 0.80594L77.5806 0.805939C78.8125 0.805939 79.8213 1.81847 79.8213 3.08065L79.8213 10.0172C79.8213 15.1104 75.7454 19.2285 70.729 19.2285C65.7125 19.2285 61.6366 15.1104 61.6366 10.0172Z" stroke="black" stroke-opacity="0.5"/>
<path d="M60.5913 41.8515C71.2039 41.8515 79.8213 50.566 79.8213 61.329L79.8213 75.5987C79.8213 78.4807 77.5141 80.8066 74.6821 80.8066L60.5914 80.8066C49.9753 80.8066 41.3614 72.0922 41.3614 61.329C41.3614 50.566 49.9753 41.8515 60.5913 41.8515Z" stroke="black" stroke-opacity="0.5"/>
<path d="M20.0533 39.7656C9.4372 39.7656 0.823325 31.0509 0.823324 20.288L0.823323 6.01823C0.823323 3.13583 3.12738 0.810451 5.95894 0.810451L20.0533 0.810449C30.6658 0.810448 39.2832 9.52487 39.2832 20.288C39.2832 31.0508 30.6658 39.7656 20.0533 39.7656Z" stroke="black" stroke-opacity="0.5"/>
<path d="M39.2832 61.329C39.2832 72.0921 30.6658 80.8066 20.0533 80.8066L5.95895 80.8066C3.12741 80.8066 0.823326 78.4811 0.823326 75.5987L0.823324 61.329C0.823323 50.566 9.43719 41.8515 20.0533 41.8515C30.6658 41.8515 39.2832 50.566 39.2832 61.329Z" stroke="black" stroke-opacity="0.5"/>
<path d="M59.54 30.5504C59.54 35.6436 55.4641 39.7617 50.4477 39.7617L43.596 39.7617C42.3681 39.7617 41.3589 38.7496 41.3589 37.487L41.3589 30.5504C41.3589 25.4572 45.4349 21.3391 50.4477 21.3391C55.4641 21.3391 59.54 25.4573 59.54 30.5504Z" stroke="black" stroke-opacity="0.5"/>
<path d="M50.4477 0.80594C55.4641 0.805939 59.54 4.92409 59.54 10.0172C59.54 15.1104 55.4641 19.2285 50.4477 19.2285C45.4349 19.2285 41.3589 15.1105 41.3589 10.0172L41.3589 3.08065C41.3589 1.81804 42.3681 0.80594 43.596 0.80594L50.4477 0.80594Z" stroke="black" stroke-opacity="0.5"/>
</g>
<defs>
<clipPath id="clip0_1747_35610">
<rect width="649" height="81.0001" fill="white" transform="translate(649 81.3066) rotate(180)"/>
</clipPath>
</defs>
</svg>
