<svg width="488" height="140" viewBox="0 0 488 140" fill="none" xmlns="http://www.w3.org/2000/svg">
<g opacity="0.6" clip-path="url(#clip0_1707_35636)">
<path d="M366.409 70.9417C375.557 70.9417 382.973 78.4566 382.973 87.7267C382.973 96.9969 375.557 104.512 366.409 104.512C357.262 104.512 349.846 96.9969 349.846 87.7267V75.7375C349.846 73.0888 351.965 70.9417 354.578 70.9417H366.409Z" fill="white"/>
<path d="M366.409 139.999C375.557 139.999 382.973 132.484 382.973 123.214C382.973 113.944 375.557 106.429 366.409 106.429C357.262 106.429 349.846 113.944 349.846 123.214V135.203C349.846 137.852 351.965 139.999 354.578 139.999L366.409 139.999Z" fill="white"/>
<path d="M349.849 34.5294C349.849 53.5996 365.104 69.0586 383.923 69.0586C402.741 69.0586 417.996 53.5996 417.996 34.5294C417.996 15.4593 402.741 0.000297546 383.923 0.000297546H359.584C354.208 0.000297546 349.849 4.41752 349.849 9.86559V34.5294Z" fill="white"/>
<path d="M488 105.464C488 86.3941 472.745 70.9347 453.927 70.9347C435.108 70.9347 419.853 86.3941 419.853 105.464C419.853 124.534 435.108 139.993 453.927 139.993H478.265C483.641 139.993 488 135.576 488 130.128V105.464Z" fill="white"/>
<path d="M453.927 -0.000679016C435.108 -0.000679016 419.853 15.4583 419.853 34.5285C419.853 53.5986 435.108 69.0576 453.927 69.0576C472.745 69.0576 488 53.5986 488 34.5285L488 9.86462C488 4.41654 483.641 -0.000679016 478.265 -0.000679016H453.927Z" fill="white"/>
<path d="M401.432 70.9417C392.285 70.9417 384.869 78.4566 384.869 87.7267C384.869 96.9969 392.284 104.512 401.432 104.512C410.58 104.512 417.996 96.9969 417.996 87.7267V75.7374C417.996 73.0888 415.877 70.9417 413.264 70.9417H401.432Z" fill="white"/>
<path d="M401.433 140C392.285 140 384.869 132.485 384.869 123.215C384.869 113.945 392.285 106.43 401.433 106.43C410.581 106.43 417.996 113.945 417.996 123.215V135.204C417.996 137.853 415.877 140 413.264 140L401.433 140Z" fill="white"/>
<path d="M331.401 69.0576C322.254 69.0576 314.838 61.5428 314.838 52.2727C314.838 43.0026 322.254 35.4878 331.401 35.4878C340.549 35.4878 347.965 43.0026 347.965 52.2727V64.2618C347.965 66.9105 345.846 69.0576 343.232 69.0576H331.401Z" fill="white"/>
<path d="M331.401 0.000450134C322.254 0.000450134 314.838 7.51524 314.838 16.7854C314.838 26.0555 322.254 33.5703 331.401 33.5703C340.549 33.5703 347.965 26.0555 347.965 16.7854V4.79624C347.965 2.14754 345.846 0.000450134 343.232 0.000450134H331.401Z" fill="white"/>
<path d="M347.965 105.47C347.965 86.3999 332.71 70.9408 313.892 70.9408C295.073 70.9408 279.818 86.3999 279.818 105.47C279.818 124.54 295.073 139.999 313.892 139.999H338.23C343.606 139.999 347.965 135.582 347.965 130.134V105.47Z" fill="white"/>
<path d="M209.814 34.5343C209.814 53.6038 225.069 69.0635 243.888 69.0635C262.706 69.0635 277.961 53.6038 277.961 34.5343C277.961 15.4642 262.706 0.00518036 243.888 0.00518036H219.549C214.173 0.00518036 209.814 4.42178 209.814 9.87048V34.5343Z" fill="white"/>
<path d="M243.888 139.999C262.706 139.999 277.961 124.54 277.961 105.47C277.961 86.3999 262.706 70.9408 243.888 70.9408C225.069 70.9408 209.814 86.4 209.814 105.47V130.134C209.814 135.582 214.173 139.999 219.549 139.999L243.888 139.999Z" fill="white"/>
<path d="M296.38 69.0576C305.528 69.0576 312.943 61.5428 312.943 52.2727C312.943 43.0026 305.528 35.4878 296.38 35.4878C287.232 35.4878 279.816 43.0026 279.816 52.2727V64.2618C279.816 66.9105 281.935 69.0576 284.549 69.0576H296.38Z" fill="white"/>
<path d="M296.38 -0.000526428C305.528 -0.000526428 312.943 7.51428 312.943 16.7844C312.943 26.0545 305.528 33.5693 296.38 33.5693C287.232 33.5693 279.817 26.0545 279.817 16.7844V4.79526C279.817 2.14656 281.935 -0.000526428 284.549 -0.000526428H296.38Z" fill="white"/>
<path d="M86.3663 70.9406C95.5135 70.9406 102.93 78.4556 102.93 87.7257C102.93 96.9958 95.5135 104.511 86.3663 104.511C77.2186 104.511 69.8023 96.9958 69.8023 87.7257V75.7364C69.8023 73.0877 71.9211 70.9406 74.5348 70.9406H86.3663Z" fill="white"/>
<path d="M86.3663 139.999C95.5141 139.999 102.93 132.484 102.93 123.214C102.93 113.944 95.5141 106.429 86.3663 106.429C77.2186 106.429 69.803 113.944 69.803 123.214V135.203C69.803 137.852 71.9217 139.999 74.5354 139.999L86.3663 139.999Z" fill="white"/>
<path d="M69.8006 34.5285C69.8006 53.5986 85.0555 69.0576 103.874 69.0576C122.692 69.0576 137.947 53.5986 137.947 34.5285C137.947 15.459 122.692 -0.000686646 103.874 -0.000686646H79.5356C74.1595 -0.000686646 69.8006 4.41654 69.8006 9.86524V34.5285Z" fill="white"/>
<path d="M207.955 105.464C207.955 86.3941 192.7 70.9352 173.882 70.9352C155.063 70.9352 139.808 86.3941 139.808 105.464C139.808 124.534 155.063 139.993 173.882 139.993H198.22C203.596 139.993 207.955 135.576 207.955 130.128V105.464Z" fill="white"/>
<path d="M173.882 -0.000686646C155.063 -0.000686646 139.808 15.459 139.808 34.5285C139.808 53.5986 155.063 69.0576 173.882 69.0576C192.7 69.0576 207.955 53.5986 207.955 34.5285V9.86524C207.955 4.41654 203.596 -0.000686646 198.22 -0.000686646H173.882Z" fill="white"/>
<path d="M121.387 70.9405C112.24 70.9405 104.824 78.4557 104.824 87.7257C104.824 96.9958 112.24 104.511 121.387 104.511C130.535 104.511 137.951 96.9959 137.951 87.7257V75.7363C137.951 73.0876 135.832 70.9405 133.219 70.9405H121.387Z" fill="white"/>
<path d="M121.384 139.999C112.236 139.999 104.821 132.484 104.821 123.214C104.821 113.944 112.236 106.429 121.384 106.429C130.532 106.429 137.947 113.944 137.947 123.214V135.203C137.947 137.852 135.829 139.999 133.215 139.999L121.384 139.999Z" fill="white"/>
<path d="M51.378 69.0576C42.2303 69.0576 34.8147 61.5428 34.8147 52.2727C34.8147 43.0026 42.2303 35.4878 51.378 35.4878C60.5258 35.4878 67.9414 43.0026 67.9414 52.2727V64.2618C67.9414 66.9105 65.8227 69.0576 63.2089 69.0576H51.378Z" fill="white"/>
<path d="M51.378 0.000450134C42.2303 0.000450134 34.8147 7.51524 34.8147 16.7854C34.8147 26.0555 42.2303 33.5703 51.378 33.5703C60.5258 33.5703 67.9414 26.0555 67.9414 16.7854V4.79624C67.9414 2.14754 65.8227 0.000450134 63.2089 0.000450134H51.378Z" fill="white"/>
<path d="M67.9414 105.47C67.9414 86.4 52.6865 70.9407 33.8681 70.9407C15.0497 70.9407 -0.205276 86.4 -0.205276 105.47C-0.205276 124.54 15.0497 139.999 33.8681 139.999L58.2063 139.999C63.5831 139.999 67.9414 135.582 67.9414 130.134V105.47Z" fill="white"/>
<path d="M16.3566 69.0576C25.5043 69.0576 32.9199 61.5428 32.9199 52.2727C32.9199 43.0026 25.5043 35.4878 16.3566 35.4878C7.20883 35.4878 -0.206783 43.0026 -0.206783 52.2727V64.2618C-0.206783 66.9105 1.91196 69.0576 4.52507 69.0576H16.3566Z" fill="white"/>
<path d="M16.3566 -0.000526428C25.5043 -0.000526428 32.9199 7.51428 32.9199 16.7844C32.9199 26.0545 25.5043 33.5693 16.3566 33.5693C7.20883 33.5693 -0.206783 26.0545 -0.206783 16.7844V4.79526C-0.206783 2.14656 1.91194 -0.000526428 4.52568 -0.000526428H16.3566Z" fill="white"/>
</g>
<defs>
<clipPath id="clip0_1707_35636">
<rect width="488" height="140" fill="white" transform="matrix(-1 0 0 -1 488 140)"/>
</clipPath>
</defs>
</svg>
