<svg width="150" height="39" viewBox="0 0 150 39" fill="none" xmlns="http://www.w3.org/2000/svg">
<path d="M28.9617 38.261C23.8258 38.261 19.6621 34.0974 19.6621 28.9615C19.6621 23.8256 23.8258 19.6621 28.9617 19.6621C34.0975 19.6621 38.2612 23.8256 38.2612 28.9615V35.604C38.2612 37.0714 37.0713 38.261 35.6039 38.261H28.9617Z" fill="white"/>
<path d="M28.9617 0C23.8258 -2.24498e-07 19.6621 4.1635 19.6621 9.29945C19.6621 14.4353 23.8258 18.5988 28.9617 18.5988C34.0975 18.5988 38.2612 14.4353 38.2612 9.29945V2.65698C38.2612 1.18957 37.0713 3.54494e-07 35.6039 2.90351e-07L28.9617 0Z" fill="white"/>
<path d="M9.29955 38.261C14.4354 38.261 18.5991 34.0974 18.5991 28.9615C18.5991 23.8256 14.4354 19.6621 9.29955 19.6621C4.16373 19.6621 0 23.8256 0 28.9615V35.604C0 37.0714 1.1894 38.261 2.65678 38.261H9.29955Z" fill="white"/>
<path d="M9.29955 0C14.4354 -6.12455e-08 18.5991 4.1635 18.5991 9.29945C18.5991 14.4353 14.4354 18.5988 9.29955 18.5988C4.16373 18.5988 0 14.4353 0 9.29945V2.65698C0 1.18957 1.1894 9.67088e-08 2.65678 7.921e-08L9.29955 0Z" fill="white"/>
<path d="M50.7469 1.74023C47.3638 1.74023 44.957 4.13022 44.957 7.49638C44.957 10.8626 47.3638 13.2525 50.7469 13.2525C54.1299 13.2525 56.5367 10.8626 56.5367 7.49638C56.5367 4.13022 54.1299 1.74023 50.7469 1.74023ZM50.7469 2.58178C53.5913 2.58178 55.5942 4.61832 55.5942 7.49638C55.5942 10.3745 53.5913 12.411 50.7469 12.411C47.9024 12.411 45.8996 10.3745 45.8996 7.49638C45.8996 4.61832 47.9024 2.58178 50.7469 2.58178Z" fill="white"/>
<path d="M68.2437 13.0839V1.9082H67.3348V11.8721H67.3011L59.9124 1.9082H58.5996V13.0839H59.5085V2.86756H59.5421L67.0992 13.0839H68.2437Z" fill="white"/>
<path d="M77.8937 6.99116H72.0029V2.74975H79.1055V1.9082H71.0771V13.0839H79.1055V12.2424H72.0029V7.83266H77.8937V6.99116Z" fill="white"/>
<path d="M97.8562 13.0839V1.9082H96.3748L91.4434 11.8552H91.4097L86.4951 1.9082H85.0645V13.0839H85.9733V2.93489H86.007L91.0394 13.0839H91.7968L96.8966 2.81707H96.9302V13.0839H97.8562Z" fill="white"/>
<path d="M100.678 13.0839H101.603V1.9082H100.678V13.0839Z" fill="white"/>
<path d="M112.234 13.0839V12.2424H105.35V1.9082H104.425V13.0839H112.234Z" fill="white"/>
<path d="M121.884 13.0839V12.2424H115V1.9082H114.074V13.0839H121.884Z" fill="white"/>
<path d="M123.723 13.0839H124.648V1.9082H123.723V13.0839Z" fill="white"/>
<path d="M132.502 1.74023C129.119 1.74023 126.712 4.13022 126.712 7.49638C126.712 10.8626 129.119 13.2525 132.502 13.2525C135.884 13.2525 138.291 10.8626 138.291 7.49638C138.291 4.13022 135.884 1.74023 132.502 1.74023ZM132.502 2.58178C135.346 2.58178 137.349 4.61832 137.349 7.49638C137.349 10.3745 135.346 12.411 132.502 12.411C129.657 12.411 127.654 10.3745 127.654 7.49638C127.654 4.61832 129.657 2.58178 132.502 2.58178Z" fill="white"/>
<path d="M150 13.0839V1.9082H149.091V11.8721H149.057L141.668 1.9082H140.355V13.0839H141.265V2.86756H141.298L148.855 13.0839H150Z" fill="white"/>
<path d="M48.4587 28.3739V23.6961H57.146V21.8027H46.3203V36.5934H48.4587V30.2673H55.5422V28.3739H48.4587Z" fill="white"/>
<path d="M70.0588 36.5934V34.7H61.6833V21.8027H59.5449V36.5934H70.0588Z" fill="white"/>
<path d="M78.8234 21.582C74.3016 21.582 71.1162 24.7451 71.1162 29.2001C71.1162 33.6552 74.3016 36.8182 78.8234 36.8182C83.323 36.8182 86.5306 33.6552 86.5306 29.2001C86.5306 24.7451 83.323 21.582 78.8234 21.582ZM78.8234 23.4754C82.0979 23.4754 84.3699 25.8365 84.3699 29.2001C84.3699 32.5636 82.0979 34.9248 78.8234 34.9248C75.5489 34.9248 73.2769 32.5636 73.2769 29.2001C73.2769 25.8365 75.5489 23.4754 78.8234 23.4754Z" fill="white"/>
<path d="M104.172 36.5934L109.006 21.8027H106.823L103.125 33.4081H103.081L99.2271 21.8027H97.3557L93.5244 33.3635H93.4799L89.8044 21.8027H87.5547L92.3661 36.5934H94.5045L98.2465 25.3222H98.2913L102.034 36.5934H104.172Z" fill="white"/>
<path d="M113.346 28.1734V23.6961H122.034V21.8027H111.208V36.5934H122.034V34.7H113.346V30.0668H120.43V28.1734H113.346Z" fill="white"/>
<path d="M127.008 36.5934V30.9578H130.996L134.56 36.5934H137.099L133.223 30.7796C135.495 30.2895 136.653 28.7971 136.653 26.3691C136.653 23.362 134.85 21.8027 131.374 21.8027H124.87V36.5934H127.008ZM127.008 29.0644V23.6961H131.286C133.424 23.6961 134.493 24.5871 134.493 26.3691C134.493 28.1734 133.424 29.0644 131.286 29.0644H127.008Z" fill="white"/>
<path d="M144.454 21.5801C141.023 21.5801 138.863 23.3175 138.863 26.0351C138.863 28.5522 140.221 29.7327 144.097 30.156C146.971 30.4678 147.884 31.0915 147.884 32.4726C147.884 34.0319 146.57 34.9228 144.32 34.9228C142.048 34.9228 140.176 34.2769 138.885 33.0295H138.773V35.3016C139.999 36.2817 141.959 36.8162 144.342 36.8162C147.884 36.8162 150 35.1679 150 32.428C150 29.755 148.575 28.463 144.609 28.0621C141.825 27.7726 140.979 27.2157 140.979 25.9237C140.979 24.4313 142.337 23.4734 144.431 23.4734C146.458 23.4734 148.107 24.0526 149.087 25.1218H149.198V22.8275C148.24 22.0478 146.458 21.5801 144.454 21.5801Z" fill="white"/>
</svg>
