<svg width="150" height="39" viewBox="0 0 150 39" fill="none" xmlns="http://www.w3.org/2000/svg">
<path d="M28.9617 38.6301C23.8258 38.6301 19.6621 34.4666 19.6621 29.3306C19.6621 24.1947 23.8258 20.0312 28.9617 20.0312C34.0975 20.0312 38.2612 24.1947 38.2612 29.3306V35.9731C38.2612 37.4405 37.0713 38.6301 35.6039 38.6301H28.9617Z" fill="#F49223"/>
<path d="M28.9617 0.369141C23.8258 0.36914 19.6621 4.53264 19.6621 9.66859C19.6621 14.8045 23.8258 18.968 28.9617 18.968C34.0975 18.968 38.2612 14.8045 38.2612 9.66859V3.02612C38.2612 1.55871 37.0713 0.369141 35.6039 0.369141L28.9617 0.369141Z" fill="#5CE6A1"/>
<path d="M9.29955 38.6301C14.4354 38.6301 18.5991 34.4666 18.5991 29.3306C18.5991 24.1947 14.4354 20.0312 9.29955 20.0312C4.16373 20.0312 0 24.1947 0 29.3306V35.9731C0 37.4405 1.1894 38.6301 2.65678 38.6301H9.29955Z" fill="#0D0D0D"/>
<path d="M9.29955 0.369141C14.4354 0.369141 18.5991 4.53264 18.5991 9.66859C18.5991 14.8045 14.4354 18.968 9.29955 18.968C4.16373 18.968 0 14.8045 0 9.66859V3.02612C0 1.55871 1.1894 0.369141 2.65678 0.369141L9.29955 0.369141Z" fill="#CA9EC2"/>
<path d="M50.7469 2.10938C47.3638 2.10938 44.957 4.49936 44.957 7.86552C44.957 11.2317 47.3638 13.6217 50.7469 13.6217C54.1299 13.6217 56.5367 11.2317 56.5367 7.86552C56.5367 4.49936 54.1299 2.10938 50.7469 2.10938ZM50.7469 2.95092C53.5913 2.95092 55.5942 4.98746 55.5942 7.86552C55.5942 10.7436 53.5913 12.7802 50.7469 12.7802C47.9024 12.7802 45.8996 10.7436 45.8996 7.86552C45.8996 4.98746 47.9024 2.95092 50.7469 2.95092Z" fill="#06131E"/>
<path d="M68.2437 13.453V2.27734H67.3348V12.2413H67.3011L59.9124 2.27734H58.5996V13.453H59.5085V3.23671H59.5421L67.0992 13.453H68.2437Z" fill="#06131E"/>
<path d="M77.8937 7.3603H72.0029V3.11889H79.1055V2.27734H71.0771V13.453H79.1055V12.6115H72.0029V8.2018H77.8937V7.3603Z" fill="#06131E"/>
<path d="M97.8562 13.453V2.27734H96.3748L91.4434 12.2244H91.4097L86.4951 2.27734H85.0645V13.453H85.9733V3.30403H86.007L91.0394 13.453H91.7968L96.8966 3.18621H96.9302V13.453H97.8562Z" fill="#06131E"/>
<path d="M100.678 13.453H101.603V2.27734H100.678V13.453Z" fill="#06131E"/>
<path d="M112.234 13.453V12.6115H105.35V2.27734H104.425V13.453H112.234Z" fill="#06131E"/>
<path d="M121.884 13.453V12.6115H115V2.27734H114.074V13.453H121.884Z" fill="#06131E"/>
<path d="M123.723 13.453H124.648V2.27734H123.723V13.453Z" fill="#06131E"/>
<path d="M132.502 2.10938C129.119 2.10938 126.712 4.49936 126.712 7.86552C126.712 11.2317 129.119 13.6217 132.502 13.6217C135.884 13.6217 138.291 11.2317 138.291 7.86552C138.291 4.49936 135.884 2.10938 132.502 2.10938ZM132.502 2.95092C135.346 2.95092 137.349 4.98746 137.349 7.86552C137.349 10.7436 135.346 12.7802 132.502 12.7802C129.657 12.7802 127.654 10.7436 127.654 7.86552C127.654 4.98746 129.657 2.95092 132.502 2.95092Z" fill="#06131E"/>
<path d="M150 13.453V2.27734H149.091V12.2413H149.057L141.668 2.27734H140.355V13.453H141.265V3.23671H141.298L148.855 13.453H150Z" fill="#06131E"/>
<path d="M48.4587 28.743V24.0652H57.146V22.1719H46.3203V36.9626H48.4587V30.6364H55.5422V28.743H48.4587Z" fill="#06131E"/>
<path d="M70.0588 36.9626V35.0691H61.6833V22.1719H59.5449V36.9626H70.0588Z" fill="#06131E"/>
<path d="M78.8234 21.9502C74.3016 21.9502 71.1162 25.1132 71.1162 29.5683C71.1162 34.0233 74.3016 37.1864 78.8234 37.1864C83.323 37.1864 86.5306 34.0233 86.5306 29.5683C86.5306 25.1132 83.323 21.9502 78.8234 21.9502ZM78.8234 23.8435C82.0979 23.8435 84.3699 26.2047 84.3699 29.5683C84.3699 32.9318 82.0979 35.293 78.8234 35.293C75.5489 35.293 73.2769 32.9318 73.2769 29.5683C73.2769 26.2047 75.5489 23.8435 78.8234 23.8435Z" fill="#06131E"/>
<path d="M104.172 36.9626L109.006 22.1719H106.823L103.125 33.7772H103.081L99.2271 22.1719H97.3557L93.5244 33.7326H93.4799L89.8044 22.1719H87.5547L92.3661 36.9626H94.5045L98.2465 25.6913H98.2913L102.034 36.9626H104.172Z" fill="#06131E"/>
<path d="M113.346 28.5425V24.0652H122.034V22.1719H111.208V36.9626H122.034V35.0691H113.346V30.4359H120.43V28.5425H113.346Z" fill="#06131E"/>
<path d="M127.008 36.9626V31.327H130.996L134.56 36.9626H137.099L133.223 31.1487C135.495 30.6587 136.653 29.1662 136.653 26.7383C136.653 23.7311 134.85 22.1719 131.374 22.1719H124.87V36.9626H127.008ZM127.008 29.4336V24.0652H131.286C133.424 24.0652 134.493 24.9563 134.493 26.7383C134.493 28.5425 133.424 29.4336 131.286 29.4336H127.008Z" fill="#06131E"/>
<path d="M144.454 21.9502C141.023 21.9502 138.863 23.6876 138.863 26.4052C138.863 28.9223 140.221 30.1029 144.097 30.5261C146.971 30.838 147.884 31.4616 147.884 32.8427C147.884 34.402 146.57 35.293 144.32 35.293C142.048 35.293 140.176 34.647 138.885 33.3996H138.773V35.6717C139.999 36.6518 141.959 37.1864 144.342 37.1864C147.884 37.1864 150 35.538 150 32.7981C150 30.1252 148.575 28.8332 144.609 28.4322C141.825 28.1427 140.979 27.5858 140.979 26.2938C140.979 24.8014 142.337 23.8435 144.431 23.8435C146.458 23.8435 148.107 24.4227 149.087 25.4919H149.198V23.1976C148.24 22.4179 146.458 21.9502 144.454 21.9502Z" fill="#06131E"/>
</svg>
