<svg width="639" height="181" viewBox="0 0 639 181" fill="none" xmlns="http://www.w3.org/2000/svg">
<g opacity="0.45" clip-path="url(#clip0_1706_34553)">
<path d="M480.512 91.7179C492.436 91.7179 502.102 101.434 502.102 113.419C502.102 125.403 492.436 135.119 480.512 135.119C468.588 135.119 458.922 125.403 458.922 113.419V97.9182C458.922 94.4938 461.683 91.7179 465.09 91.7179H480.512Z" fill="#F49223"/>
<path d="M480.512 180.999C492.436 180.999 502.102 171.283 502.102 159.298C502.102 147.314 492.436 137.598 480.512 137.598C468.588 137.598 458.922 147.314 458.922 159.298V174.799C458.922 178.223 461.683 180.999 465.09 180.999L480.512 180.999Z" fill="#5CE6A1"/>
<path d="M458.923 44.641C458.923 69.2959 478.807 89.2822 503.336 89.2822C527.866 89.2822 547.75 69.2959 547.75 44.641C547.75 19.986 527.866 -0.000282288 503.336 -0.000282288H471.612C464.604 -0.000282288 458.923 5.71056 458.923 12.7541V44.641Z" fill="#F49223"/>
<path d="M639 136.351C639 111.696 619.115 91.7095 594.586 91.7095C570.057 91.7095 550.173 111.696 550.173 136.351C550.173 161.006 570.057 180.992 594.586 180.992H626.31C633.319 180.992 639 175.282 639 168.238V136.351Z" fill="#CA9EC2"/>
<path d="M594.586 -0.000282288C570.057 -0.000282288 550.173 19.986 550.173 44.641C550.173 69.2959 570.057 89.2822 594.586 89.2822C619.115 89.2822 639 69.2959 639 44.641L639 12.7541C639 5.71056 633.319 -0.000282288 626.31 -0.000282288H594.586Z" fill="#0D0D0D"/>
<path d="M526.159 91.7179C514.236 91.7179 504.569 101.434 504.569 113.419C504.569 125.403 514.235 135.119 526.159 135.119C538.083 135.119 547.75 125.403 547.75 113.419V97.9181C547.75 94.4937 544.987 91.7179 541.581 91.7179H526.159Z" fill="#0D0D0D"/>
<path d="M526.16 181C514.236 181 504.57 171.284 504.57 159.299C504.57 147.314 514.236 137.599 526.16 137.599C538.084 137.599 547.75 147.314 547.75 159.299V174.8C547.75 178.224 544.988 181 541.581 181L526.16 181Z" fill="#CA9EC2"/>
<path d="M434.877 89.2812C422.953 89.2812 413.287 79.5657 413.287 67.5807C413.287 55.5958 422.953 45.8802 434.877 45.8802C446.801 45.8802 456.467 55.5958 456.467 67.5807V83.081C456.467 86.5054 453.705 89.2812 450.298 89.2812H434.877Z" fill="#CA9EC2"/>
<path d="M434.877 0.000328064C422.953 0.000328064 413.287 9.71588 413.287 21.7008C413.287 33.6858 422.953 43.4014 434.877 43.4014C446.801 43.4014 456.467 33.6858 456.467 21.7008V6.2006C456.467 2.77621 453.705 0.000328064 450.298 0.000328064H434.877Z" fill="#0D0D0D"/>
<path d="M456.467 136.358C456.467 111.703 436.582 91.7166 412.053 91.7166C387.524 91.7166 367.639 111.703 367.639 136.358C367.639 161.012 387.524 180.999 412.053 180.999H443.777C450.785 180.999 456.467 175.289 456.467 168.244V136.358Z" fill="#CA9EC2"/>
<path d="M276.389 44.6488C276.389 69.3029 296.274 89.29 320.803 89.29C345.332 89.29 365.217 69.3029 365.217 44.6488C365.217 19.9938 345.332 0.00753021 320.803 0.00753021H289.079C282.071 0.00753021 276.389 5.71756 276.389 12.7619V44.6488Z" fill="#F49223"/>
<path d="M320.803 180.999C345.332 180.999 365.217 161.012 365.217 136.358C365.217 111.703 345.332 91.7166 320.803 91.7166C296.274 91.7166 276.389 111.703 276.389 136.358V168.244C276.389 175.289 282.071 180.999 289.079 180.999L320.803 180.999Z" fill="#5CE6A1"/>
<path d="M389.228 89.2812C401.152 89.2812 410.818 79.5657 410.818 67.5807C410.818 55.5958 401.152 45.8802 389.228 45.8802C377.305 45.8802 367.638 55.5958 367.638 67.5807V83.081C367.638 86.5054 370.4 89.2812 373.806 89.2812H389.228Z" fill="#5CE6A1"/>
<path d="M389.228 -0.000648499C401.152 -0.000648499 410.818 9.71492 410.818 21.6999C410.818 33.6848 401.152 43.4004 389.228 43.4004C377.305 43.4004 367.639 33.6848 367.639 21.6999V6.19962C367.639 2.77523 370.4 -0.000648499 373.807 -0.000648499H389.228Z" fill="#F49223"/>
<path d="M115.48 91.7167C127.403 91.7167 137.07 101.433 137.07 113.418C137.07 125.402 127.403 135.118 115.48 135.118C103.557 135.118 93.8897 125.402 93.8897 113.418V97.917C93.8897 94.4926 96.6514 91.7167 100.058 91.7167H115.48Z" fill="#F49223"/>
<path d="M115.48 180.999C127.404 180.999 137.07 171.283 137.07 159.298C137.07 147.313 127.404 137.598 115.48 137.598C103.557 137.598 93.8905 147.313 93.8905 159.298V174.799C93.8905 178.223 96.6522 180.999 100.059 180.999L115.48 180.999Z" fill="#5CE6A1"/>
<path d="M93.8874 44.64C93.8874 69.2949 113.772 89.2812 138.301 89.2812C162.83 89.2812 182.715 69.2949 182.715 44.64C182.715 19.9858 162.83 -0.00126648 138.301 -0.00126648H106.577C99.5691 -0.00126648 93.8874 5.70958 93.8874 12.754V44.64Z" fill="#F49223"/>
<path d="M273.967 136.35C273.967 111.695 254.082 91.7091 229.553 91.7091C205.024 91.7091 185.139 111.695 185.139 136.35C185.139 161.005 205.024 180.991 229.553 180.991H261.277C268.285 180.991 273.967 175.281 273.967 168.237V136.35Z" fill="#CA9EC2"/>
<path d="M229.553 -0.00126648C205.024 -0.00126648 185.139 19.9858 185.139 44.64C185.139 69.2949 205.024 89.2812 229.553 89.2812C254.082 89.2812 273.967 69.2949 273.967 44.64V12.754C273.967 5.70958 268.285 -0.00126648 261.277 -0.00126648H229.553Z" fill="#0D0D0D"/>
<path d="M161.128 91.7166C149.205 91.7166 139.538 101.433 139.538 113.418C139.538 125.402 149.205 135.118 161.128 135.118C173.052 135.118 182.719 125.403 182.719 113.418V97.9169C182.719 94.4925 179.957 91.7166 176.55 91.7166H161.128Z" fill="#0D0D0D"/>
<path d="M161.125 180.999C149.201 180.999 139.535 171.283 139.535 159.298C139.535 147.313 149.201 137.598 161.125 137.598C173.049 137.598 182.715 147.313 182.715 159.298V174.799C182.715 178.223 179.953 180.999 176.546 180.999L161.125 180.999Z" fill="#CA9EC2"/>
<path d="M69.8749 89.2812C57.951 89.2812 48.285 79.5657 48.285 67.5807C48.285 55.5958 57.951 45.8802 69.8749 45.8802C81.7988 45.8802 91.4648 55.5958 91.4648 67.5807V83.081C91.4648 86.5054 88.7031 89.2812 85.2962 89.2812H69.8749Z" fill="#CA9EC2"/>
<path d="M69.8749 0.000328064C57.951 0.000328064 48.285 9.71588 48.285 21.7008C48.285 33.6858 57.951 43.4014 69.8749 43.4014C81.7988 43.4014 91.4648 33.6858 91.4648 21.7008V6.2006C91.4648 2.77621 88.7031 0.000328064 85.2962 0.000328064H69.8749Z" fill="#0D0D0D"/>
<path d="M91.4648 136.358C91.4648 111.703 71.5804 91.7165 47.0511 91.7165C22.5218 91.7165 2.63741 111.703 2.63741 136.358C2.63741 161.012 22.5218 180.999 47.0511 180.999L78.7754 180.999C85.7839 180.999 91.4648 175.289 91.4648 168.244V136.358Z" fill="#CA9EC2"/>
<path d="M-88.6126 44.6488C-88.6126 69.3029 -68.7282 89.29 -44.1989 89.29C-19.6696 89.29 0.214844 69.3029 0.214844 44.6488C0.214844 19.9938 -19.6696 0.00753021 -44.1989 0.00753021H-75.9232C-82.9309 0.00753021 -88.6126 5.71756 -88.6126 12.7619V44.6488Z" fill="#F49223"/>
<path d="M-44.1989 180.999C-19.6696 180.999 0.214844 161.012 0.214844 136.358C0.214844 111.703 -19.6696 91.7165 -44.1989 91.7165C-68.7282 91.7165 -88.6126 111.703 -88.6126 136.358V168.244C-88.6126 175.289 -82.9309 180.999 -75.9232 180.999L-44.1989 180.999Z" fill="#5CE6A1"/>
<path d="M24.2265 89.2812C36.1504 89.2812 45.8164 79.5657 45.8164 67.5807C45.8164 55.5958 36.1504 45.8802 24.2265 45.8802C12.3027 45.8802 2.6366 55.5958 2.6366 67.5807V83.081C2.6366 86.5054 5.39832 89.2812 8.80445 89.2812H24.2265Z" fill="#5CE6A1"/>
<path d="M24.2265 -0.000648499C36.1504 -0.000648499 45.8164 9.71492 45.8164 21.6999C45.8164 33.6848 36.1504 43.4004 24.2265 43.4004C12.3027 43.4004 2.6366 33.6848 2.6366 21.6999V6.19962C2.6366 2.77523 5.3983 -0.000648499 8.80524 -0.000648499H24.2265Z" fill="#F49223"/>
</g>
<defs>
<clipPath id="clip0_1706_34553">
<rect width="639" height="181" fill="white" transform="matrix(-1 0 0 -1 639 181)"/>
</clipPath>
</defs>
</svg>
